<?xml version="1.0" encoding="UTF-8" standalone="no"?>
<svg
   xmlns:dc="http://purl.org/dc/elements/1.1/"
   xmlns:cc="http://creativecommons.org/ns#"
   xmlns:rdf="http://www.w3.org/1999/02/22-rdf-syntax-ns#"
   xmlns:svg="http://www.w3.org/2000/svg"
   xmlns="http://www.w3.org/2000/svg"
   xmlns:sodipodi="http://sodipodi.sourceforge.net/DTD/sodipodi-0.dtd"
   xmlns:inkscape="http://www.inkscape.org/namespaces/inkscape"
   width="107.90139mm"
   height="44.079563mm"
   viewBox="0 0 1274.6321 521.11132"
   version="1.2"
   id="svg2"
   inkscape:version="0.91 r13725"
   sodipodi:docname="Bossa Bass.svg">
  <metadata
     id="metadata164">
    <rdf:RDF>
      <cc:Work
         rdf:about="">
        <dc:format>image/svg+xml</dc:format>
        <dc:type
           rdf:resource="http://purl.org/dc/dcmitype/StillImage" />
        <dc:title>Untitled</dc:title>
      </cc:Work>
    </rdf:RDF>
  </metadata>
  <sodipodi:namedview
     pagecolor="#ffffff"
     bordercolor="#666666"
     borderopacity="1"
     objecttolerance="10"
     gridtolerance="10"
     guidetolerance="10"
     inkscape:pageopacity="0"
     inkscape:pageshadow="2"
     inkscape:window-width="1538"
     inkscape:window-height="877"
     id="namedview162"
     showgrid="false"
     fit-margin-top="3"
     fit-margin-bottom="5"
     fit-margin-left="1"
     fit-margin-right="1"
     inkscape:zoom="0.73903001"
     inkscape:cx="191.16576"
     inkscape:cy="90.013917"
     inkscape:window-x="54"
     inkscape:window-y="-8"
     inkscape:window-maximized="1"
     inkscape:current-layer="svg2" />
  <title
     id="title4">Untitled</title>
  <desc
     id="desc6">Generated by MuseScore 2.0.2</desc>
  <defs
     id="defs8" />
  <g
     id="g10"
     style="fill:none;fill-rule:evenodd;stroke:#000000;stroke-width:1;stroke-linecap:square;stroke-linejoin:bevel"
     transform="translate(-12.292291,-74.490997)">
    <g
       transform="matrix(3.125,0,0,3.125,23.622,364.606)"
       font-size="34.375"
       font-weight="400"
       font-style="normal"
       id="g12"
       style="font-style:normal;font-weight:400;font-size:34.375px;font-family:'MS Shell Dlg 2';fill:none;stroke:#000000;stroke-width:0.53336698;stroke-linecap:butt;stroke-linejoin:bevel;stroke-opacity:1">
      <polyline
         vector-effect="none"
         points="0,0 400.63,0 "
         id="polyline14"
         style="fill:none" />
      <polyline
         vector-effect="none"
         points="0,10.0006 400.63,10.0006 "
         id="polyline16"
         style="fill:none" />
      <polyline
         vector-effect="none"
         points="0,20.0013 400.63,20.0013 "
         id="polyline18"
         style="fill:none" />
      <polyline
         vector-effect="none"
         points="0,30.0019 400.63,30.0019 "
         id="polyline20"
         style="fill:none" />
      <polyline
         vector-effect="none"
         points="0,40.0025 400.63,40.0025 "
         id="polyline22"
         style="fill:none" />
      <polyline
         vector-effect="none"
         points="0,50.0031 400.63,50.0031 "
         id="polyline24"
         style="fill:none" />
    </g>
    <g
       transform="matrix(3.125,0,0,3.125,23.622,145.843)"
       font-size="34.375"
       font-weight="400"
       font-style="normal"
       id="g26"
       style="font-style:normal;font-weight:400;font-size:34.375px;font-family:'MS Shell Dlg 2';fill:none;stroke:#000000;stroke-width:0.53336698;stroke-linecap:butt;stroke-linejoin:bevel;stroke-opacity:1">
      <polyline
         vector-effect="none"
         points="0,0 400.63,0 "
         id="polyline28"
         style="fill:none" />
      <polyline
         vector-effect="none"
         points="0,6.66709 400.63,6.66709 "
         id="polyline30"
         style="fill:none" />
      <polyline
         vector-effect="none"
         points="0,13.3342 400.63,13.3342 "
         id="polyline32"
         style="fill:none" />
      <polyline
         vector-effect="none"
         points="0,20.0013 400.63,20.0013 "
         id="polyline34"
         style="fill:none" />
      <polyline
         vector-effect="none"
         points="0,26.6683 400.63,26.6683 "
         id="polyline36"
         style="fill:none" />
    </g>
    <g
       transform="matrix(3.125,0,0,3.125,23.622,145.843)"
       font-size="34.375"
       font-weight="400"
       font-style="normal"
       id="g38"
       style="font-style:normal;font-weight:400;font-size:34.375px;font-family:'MS Shell Dlg 2';fill:none;stroke:#000000;stroke-width:1.06673002;stroke-linecap:butt;stroke-linejoin:bevel;stroke-opacity:1">
      <polyline
         vector-effect="none"
         points="0.533367,0 0.533367,120.008 "
         id="polyline40"
         style="fill:none" />
    </g>
    <g
       transform="matrix(3.125,0,0,3.125,1253.51,364.606)"
       font-size="34.375"
       font-weight="400"
       font-style="normal"
       id="g42"
       style="font-style:normal;font-weight:400;font-size:34.375px;font-family:'MS Shell Dlg 2';fill:none;stroke:#000000;stroke-width:1.06673002;stroke-linecap:butt;stroke-linejoin:bevel;stroke-opacity:1">
      <polyline
         vector-effect="none"
         points="0.533367,0 0.533367,50.0031 "
         id="polyline44"
         style="fill:none" />
    </g>
    <g
       transform="matrix(3.125,0,0,3.125,1253.51,364.606)"
       font-size="34.375"
       font-weight="400"
       font-style="normal"
       id="g46"
       style="font-style:normal;font-weight:400;font-size:34.375px;font-family:'MS Shell Dlg 2';fill:none;stroke:#000000;stroke-width:3.33353996;stroke-linecap:butt;stroke-linejoin:bevel;stroke-opacity:1">
      <polyline
         vector-effect="none"
         points="5.40034,0 5.40034,50.0031 "
         id="polyline48"
         style="fill:none" />
    </g>
    <g
       transform="matrix(3.125,0,0,3.125,1253.51,145.843)"
       font-size="34.375"
       font-weight="400"
       font-style="normal"
       id="g50"
       style="font-style:normal;font-weight:400;font-size:34.375px;font-family:'MS Shell Dlg 2';fill:none;stroke:#000000;stroke-width:1.06673002;stroke-linecap:butt;stroke-linejoin:bevel;stroke-opacity:1">
      <polyline
         vector-effect="none"
         points="0.533367,0 0.533367,26.6683 "
         id="polyline52"
         style="fill:none" />
    </g>
    <g
       transform="matrix(3.125,0,0,3.125,1253.51,145.843)"
       font-size="34.375"
       font-weight="400"
       font-style="normal"
       id="g54"
       style="font-style:normal;font-weight:400;font-size:34.375px;font-family:'MS Shell Dlg 2';fill:none;stroke:#000000;stroke-width:3.33353996;stroke-linecap:butt;stroke-linejoin:bevel;stroke-opacity:1">
      <polyline
         vector-effect="none"
         points="5.40034,0 5.40034,26.6683 "
         id="polyline56"
         style="fill:none" />
    </g>
    <g
       transform="matrix(3.125,0,0,3.125,744.66,270.85)"
       font-size="34.375"
       font-weight="400"
       font-style="normal"
       id="g58"
       style="font-style:normal;font-weight:400;font-size:34.375px;font-family:'MS Shell Dlg 2';fill:none;stroke:#000000;stroke-width:0.86672097;stroke-linecap:round;stroke-linejoin:bevel;stroke-opacity:1">
      <polyline
         vector-effect="none"
         points="0,-1.25217 0,-26.6683 "
         id="polyline60"
         style="fill:none" />
    </g>
    <g
       transform="matrix(3.125,0,0,3.125,209.705,239.598)"
       font-size="34.375"
       font-weight="400"
       font-style="normal"
       id="g62"
       style="font-style:normal;font-weight:400;font-size:34.375px;font-family:'MS Shell Dlg 2';fill:none;stroke:#000000;stroke-width:0.86672097;stroke-linecap:round;stroke-linejoin:bevel;stroke-opacity:1">
      <polyline
         vector-effect="none"
         points="0,-1.25217 0,-23.3348 "
         id="polyline64"
         style="fill:none" />
    </g>
    <g
       transform="matrix(3.125,0,0,3.125,712.301,250.016)"
       font-size="34.375"
       font-weight="400"
       font-style="normal"
       id="g66"
       style="font-style:normal;font-weight:400;font-size:34.375px;font-family:'MS Shell Dlg 2';fill:none;stroke:#000000;stroke-width:1.06673002;stroke-linecap:square;stroke-linejoin:bevel;stroke-opacity:1">
      <polyline
         vector-effect="none"
         points="0,0 12.7883,0 "
         id="polyline68"
         style="fill:none" />
    </g>
    <g
       transform="matrix(3.125,0,0,3.125,712.301,270.85)"
       font-size="34.375"
       font-weight="400"
       font-style="normal"
       id="g70"
       style="font-style:normal;font-weight:400;font-size:34.375px;font-family:'MS Shell Dlg 2';fill:none;stroke:#000000;stroke-width:1.06673002;stroke-linecap:square;stroke-linejoin:bevel;stroke-opacity:1">
      <polyline
         vector-effect="none"
         points="0,0 12.7883,0 "
         id="polyline72"
         style="fill:none" />
    </g>
    <g
       transform="matrix(3.125,0,0,3.125,723.239,520.866)"
       font-size="34.375"
       font-weight="400"
       font-style="normal"
       id="g74"
       style="font-style:normal;font-weight:400;font-size:34.375px;font-family:'MS Shell Dlg 2';fill:#ffffff;fill-opacity:1;stroke:none">
      <path
         vector-effect="none"
         d="m -0.666709,-5.00031 8.333859,0 0,10.00062 -8.333859,0 0,-10.00062"
         id="path76"
         inkscape:connector-curvature="0"
         style="fill-rule:evenodd" />
    </g>
    <g
       transform="matrix(3.1252,0,0,3.1252,723.239,520.866)"
       font-size="12"
       font-weight="400"
       font-style="normal"
       id="g78"
       style="font-style:normal;font-weight:400;font-size:12px;font-family:FreeSans;fill:none;stroke:#000000;stroke-width:1;stroke-linecap:square;stroke-linejoin:bevel;stroke-opacity:1" />
    <g
       transform="matrix(3.1252,0,0,3.1252,723.239,534.93)"
       font-size="12"
       font-weight="400"
       font-style="normal"
       id="g80"
       style="font-style:normal;font-weight:400;font-size:12px;font-family:FreeSans;fill:#000000;fill-opacity:1;stroke:none">
      <path
         vector-effect="none"
         d="m 5.73319,-8.508 0,0.984 -3.56119,0 -0.32981,2.43694 C 2.31231,-5.46369 2.83425,-5.652 3.408,-5.652 c 0.82675,0 1.49744,0.26434 2.01206,0.79303 0.51463,0.52869 0.77194,1.21678 0.77194,2.06428 0,0.90263 -0.27534,1.64006 -0.82603,2.212315 C 4.81528,-0.010125 4.10663,0.276 3.24,0.276 2.912,0.276 2.61,0.24 2.334,0.168 2.058,0.096 1.83,0.01 1.65,-0.09 1.47,-0.19 1.306,-0.322 1.158,-0.486 1.01,-0.65 0.898,-0.794 0.822,-0.918 0.746,-1.042 0.674,-1.198 0.606,-1.386 0.538,-1.574 0.496,-1.704 0.48,-1.776 0.464,-1.848 0.444,-1.952 0.42,-2.088 l 1.056,0 c 0.248,0.92 0.828,1.38 1.74,1.38 0.576,0 1.03,-0.173906 1.362,-0.52172 0.332,-0.34781 0.498,-0.82203 0.498,-1.42266 0,-0.6245 -0.168,-1.11656 -0.504,-1.47618 C 4.236,-4.48819 3.784,-4.668 3.216,-4.668 c -0.328,0 -0.608,0.0545 -0.84,0.1635 -0.232,0.109 -0.472,0.3025 -0.72,0.5805 l -0.972,0 0.63337,-4.584 4.41582,0"
         id="path82"
         inkscape:connector-curvature="0"
         style="fill-rule:nonzero" />
    </g>
    <g
       transform="matrix(3.1252,0,0,3.1252,723.239,520.866)"
       font-size="12"
       font-weight="400"
       font-style="normal"
       id="g84"
       style="font-style:normal;font-weight:400;font-size:12px;font-family:FreeSans;fill:none;stroke:#000000;stroke-width:1;stroke-linecap:square;stroke-linejoin:bevel;stroke-opacity:1" />
    <g
       transform="matrix(3.1252,0,0,3.1252,718.551,270.85)"
       font-size="27"
       font-weight="400"
       font-style="normal"
       id="g86"
       style="font-style:normal;font-weight:400;font-size:27px;font-family:MScore;fill:none;stroke:#000000;stroke-width:1;stroke-linecap:square;stroke-linejoin:bevel;stroke-opacity:1" />
    <g
       transform="matrix(3.1252,0,0,3.1252,718.551,270.85)"
       font-size="27"
       font-weight="400"
       font-style="normal"
       id="g88"
       style="font-style:normal;font-weight:400;font-size:27px;font-family:MScore;fill:#000000;fill-opacity:1;stroke:none">
      <path
         vector-effect="none"
         d="m 5.93262,-3.71777 c 0.84375,0 1.55566,0.21972 2.13574,0.65918 0.54492,0.47461 0.81738,1.07226 0.81738,1.79297 0,1.2128856 -0.62402,2.34667 -1.87207,3.40136 C 5.74805,3.19043 4.39453,3.71777 2.95312,3.71777 2.10938,3.71777 1.39746,3.49805 0.817383,3.05859 0.272461,2.58398 0,1.98633 0,1.26562 0,0.0527344 0.632812,-1.08105 1.89844,-2.13574 3.12891,-3.19043 4.47363,-3.71777 5.93262,-3.71777"
         id="path90"
         inkscape:connector-curvature="0"
         style="fill-rule:nonzero" />
    </g>
    <g
       transform="matrix(3.1252,0,0,3.1252,718.551,270.85)"
       font-size="27"
       font-weight="400"
       font-style="normal"
       id="g92"
       style="font-style:normal;font-weight:400;font-size:27px;font-family:MScore;fill:none;stroke:#000000;stroke-width:1;stroke-linecap:square;stroke-linejoin:bevel;stroke-opacity:1" />
    <g
       transform="matrix(3.125,0,0,3.125,188.284,489.614)"
       font-size="27"
       font-weight="400"
       font-style="normal"
       id="g94"
       style="font-style:normal;font-weight:400;font-size:27px;font-family:MScore;fill:#ffffff;fill-opacity:1;stroke:none">
      <path
         vector-effect="none"
         d="m -0.666709,-5.00031 8.333859,0 0,10.00062 -8.333859,0 0,-10.00062"
         id="path96"
         inkscape:connector-curvature="0"
         style="fill-rule:evenodd" />
    </g>
    <g
       transform="matrix(3.1252,0,0,3.1252,188.284,489.614)"
       font-size="12"
       font-weight="400"
       font-style="normal"
       id="g98"
       style="font-style:normal;font-weight:400;font-size:12px;font-family:FreeSans;fill:none;stroke:#000000;stroke-width:1;stroke-linecap:square;stroke-linejoin:bevel;stroke-opacity:1" />
    <g
       transform="matrix(3.1252,0,0,3.1252,188.284,503.678)"
       font-size="12"
       font-weight="400"
       font-style="normal"
       id="g100"
       style="font-style:normal;font-weight:400;font-size:12px;font-family:FreeSans;fill:#000000;fill-opacity:1;stroke:none">
      <path
         vector-effect="none"
         d="m 5.73319,-8.508 0,0.984 -3.56119,0 -0.32981,2.43694 C 2.31231,-5.46369 2.83425,-5.652 3.408,-5.652 c 0.82675,0 1.49744,0.26434 2.01206,0.79303 0.51463,0.52869 0.77194,1.21678 0.77194,2.06428 0,0.90263 -0.27534,1.64006 -0.82603,2.212315 C 4.81528,-0.010125 4.10663,0.276 3.24,0.276 2.912,0.276 2.61,0.24 2.334,0.168 2.058,0.096 1.83,0.01 1.65,-0.09 1.47,-0.19 1.306,-0.322 1.158,-0.486 1.01,-0.65 0.898,-0.794 0.822,-0.918 0.746,-1.042 0.674,-1.198 0.606,-1.386 0.538,-1.574 0.496,-1.704 0.48,-1.776 0.464,-1.848 0.444,-1.952 0.42,-2.088 l 1.056,0 c 0.248,0.92 0.828,1.38 1.74,1.38 0.576,0 1.03,-0.173906 1.362,-0.52172 0.332,-0.34781 0.498,-0.82203 0.498,-1.42266 0,-0.6245 -0.168,-1.11656 -0.504,-1.47618 C 4.236,-4.48819 3.784,-4.668 3.216,-4.668 c -0.328,0 -0.608,0.0545 -0.84,0.1635 -0.232,0.109 -0.472,0.3025 -0.72,0.5805 l -0.972,0 0.63337,-4.584 4.41582,0"
         id="path102"
         inkscape:connector-curvature="0"
         style="fill-rule:nonzero" />
    </g>
    <g
       transform="matrix(3.1252,0,0,3.1252,188.284,489.614)"
       font-size="12"
       font-weight="400"
       font-style="normal"
       id="g104"
       style="font-style:normal;font-weight:400;font-size:12px;font-family:FreeSans;fill:none;stroke:#000000;stroke-width:1;stroke-linecap:square;stroke-linejoin:bevel;stroke-opacity:1" />
    <g
       transform="matrix(3.1252,0,0,3.1252,183.597,239.598)"
       font-size="27"
       font-weight="400"
       font-style="normal"
       id="g106"
       style="font-style:normal;font-weight:400;font-size:27px;font-family:MScore;fill:none;stroke:#000000;stroke-width:1;stroke-linecap:square;stroke-linejoin:bevel;stroke-opacity:1" />
    <g
       transform="matrix(3.1252,0,0,3.1252,183.597,239.598)"
       font-size="27"
       font-weight="400"
       font-style="normal"
       id="g108"
       style="font-style:normal;font-weight:400;font-size:27px;font-family:MScore;fill:#000000;fill-opacity:1;stroke:none">
      <path
         vector-effect="none"
         d="m 5.93262,-3.71777 c 0.84375,0 1.55566,0.21972 2.13574,0.65918 0.54492,0.47461 0.81738,1.07226 0.81738,1.79297 0,1.2128856 -0.62402,2.34667 -1.87207,3.40136 C 5.74805,3.19043 4.39453,3.71777 2.95312,3.71777 2.10938,3.71777 1.39746,3.49805 0.817383,3.05859 0.272461,2.58398 0,1.98633 0,1.26562 0,0.0527344 0.632812,-1.08105 1.89844,-2.13574 3.12891,-3.19043 4.47363,-3.71777 5.93262,-3.71777"
         id="path110"
         inkscape:connector-curvature="0"
         style="fill-rule:nonzero" />
    </g>
    <g
       transform="matrix(3.1252,0,0,3.1252,183.597,239.598)"
       font-size="27"
       font-weight="400"
       font-style="normal"
       id="g112"
       style="font-style:normal;font-weight:400;font-size:27px;font-family:MScore;fill:none;stroke:#000000;stroke-width:1;stroke-linecap:square;stroke-linejoin:bevel;stroke-opacity:1" />
    <g
       transform="matrix(3.1252,0,0,3.1252,40.29,442.736)"
       font-size="27"
       font-weight="400"
       font-style="normal"
       id="g114"
       style="font-style:normal;font-weight:400;font-size:27px;font-family:MScore;fill:none;stroke:#000000;stroke-width:1;stroke-linecap:square;stroke-linejoin:bevel;stroke-opacity:1" />
    <g
       transform="matrix(3.1252,0,0,3.1252,40.29,442.736)"
       font-size="27"
       font-weight="400"
       font-style="normal"
       id="g116"
       style="font-style:normal;font-weight:400;font-size:27px;font-family:MScore;fill:#000000;fill-opacity:1;stroke:none">
      <path
         vector-effect="none"
         d="m 13.2891,17.7188 c 0,2.707 -1.6612,4.0605 -4.98344,4.0605 l -5.93261,0 0,-13.44727 5.93261,0 c 3.04104,0 4.56154,1.23047 4.56154,3.69137 0,1.4063 -0.6416,2.2764 -1.9248,2.6104 1.5644,0.2988 2.3467,1.3271 2.3467,3.085 m -8.12113,-7.0928 0,3.0586 3.13769,0 c 1.21289,0 1.81934,-0.5537 1.81934,-1.6612 0,-0.9316 -0.60645,-1.3974 -1.81934,-1.3974 l -3.13769,0 m 0,5.3525 0,3.5069 3.13769,0 c 1.45899,0 2.18844,-0.5889 2.18844,-1.7666 0,-1.1602 -0.72945,-1.7403 -2.18844,-1.7403 l -3.13769,0 m 4.37695,-12.18162 -4.95703,0 -0.92285,2.71582 -2.874024,0 4.640624,-13.44727 3.26953,0 4.64063,13.44727 -2.874,0 -0.92288,-2.71582 m -0.68554,-2.32032 -1.79297,-5.2207 -1.79297,5.2207 3.58594,0 m -0.39551,-21.14646 0,11.10056 -2.79492,0 0,-11.10056 -4.08692,0 0,-2.3467 10.96877,0 0,2.3467 -4.08693,0"
         id="path118"
         inkscape:connector-curvature="0"
         style="fill-rule:nonzero" />
    </g>
    <g
       transform="matrix(3.1252,0,0,3.1252,40.29,442.736)"
       font-size="27"
       font-weight="400"
       font-style="normal"
       id="g120"
       style="font-style:normal;font-weight:400;font-size:27px;font-family:MScore;fill:none;stroke:#000000;stroke-width:1;stroke-linecap:square;stroke-linejoin:bevel;stroke-opacity:1" />
    <g
       transform="matrix(3.1252,0,0,3.1252,40.29,208.346)"
       font-size="27"
       font-weight="400"
       font-style="normal"
       id="g122"
       style="font-style:normal;font-weight:400;font-size:27px;font-family:MScore;fill:none;stroke:#000000;stroke-width:1;stroke-linecap:square;stroke-linejoin:bevel;stroke-opacity:1" />
    <g
       transform="matrix(3.1252,0,0,3.1252,40.29,208.346)"
       font-size="27"
       font-weight="400"
       font-style="normal"
       id="g124"
       style="font-style:normal;font-weight:400;font-size:27px;font-family:MScore;fill:#000000;fill-opacity:1;stroke:none">
      <path
         vector-effect="none"
         d="m 9.91406,-6.9082 c 0,0 0.05274,0 0.15824,0 0.0703,-0.01758 0.1318,-0.02637 0.1845,-0.02637 1.9688,0 3.586,0.69434 4.8516,2.08301 1.2656,1.37109 1.8984,2.9707 1.8984,4.7988256 0,2.2675744 -0.9404,4.1132844 -2.8213,5.5371144 -0.4921,0.38671 -1.1337,0.70312 -1.9248,0.94921 0.0879,1.14258 0.1319,2.06543 0.1319,2.76856 0,0.14062 -0.0176,0.65039 -0.0528,1.52925 -0.0703,1.6348 -0.6328,3.0498 -1.6875,4.2452 -1.01949,1.1777 -2.28511,1.7666 -3.79683,1.7666 -1.42383,0 -2.63672,-0.501 -3.63867,-1.503 -1.00196,-1.0195 -1.50293,-2.25 -1.50293,-3.6914 0,-0.7558 0.29004,-1.3974 0.87011,-1.92478 0.59766,-0.52734 1.292,-0.79101 2.08301,-0.79101 0.70313,0 1.29199,0.27246 1.7666,0.81738 0.49219,0.50981 0.73829,1.14261 0.73829,1.89841 0,0.6856 -0.2461,1.2744 -0.73829,1.7666 -0.49218,0.4922 -1.08105,0.7383 -1.7666,0.7383 -0.28125,0 -0.55371,-0.0527 -0.81738,-0.1582 0.77344,1.1426 1.80176,1.7139 3.08496,1.7139 1.21289,0 2.20605,-0.4922 2.97949,-1.4766 0.80864,-1.0195 1.24804,-2.206 1.31834,-3.5596 0.0352,-0.84371 0.0528,-1.32711 0.0528,-1.45015 0,-0.98438 -0.0352,-1.79297 -0.1055,-2.42578 C 10.3008,6.83789 9.51855,6.9082 8.83301,6.9082 6.38965,6.9082 4.30664,5.94141 2.58398,4.00781 0.896484,2.05664 0.0527344,-0.263672 0.0527344,-2.95312 c 0,-0.5625 0.0527346,-1.13379 0.1582036,-1.71387 0.105468,-0.47461 0.237304,-0.99317 0.395507,-1.55567 0.087891,-0.3164 0.325196,-0.82617 0.711915,-1.52929 0.14062,-0.21094 0.29883,-0.47461 0.47461,-0.79102 0.17578,-0.31641 0.29883,-0.52734 0.36914,-0.63281 0.17578,-0.35156 0.51855,-0.82622 1.02832,-1.42382 0.14062,-0.1582 0.28564,-0.334 0.43506,-0.5274 0.14941,-0.1933 0.27685,-0.3515 0.38232,-0.4746 0.10547,-0.123 0.18457,-0.2197 0.23731,-0.29 0.05273,-0.0703 0.44824,-0.5361 1.18652,-1.3975 0.17578,-0.1757 0.34717,-0.3647 0.51416,-0.5669 0.16699,-0.2021 0.30322,-0.3603 0.40869,-0.4746 0.10547,-0.1142 0.18457,-0.1977 0.23731,-0.2505 -0.63282,-2.0918 -1.02832,-3.7617 -1.18653,-5.0097 -0.12304,-1.002 -0.18457,-2.3731 -0.18457,-4.1133 0,-1.5293 0.35157,-2.9619 1.05469,-4.2979 0.68555,-1.3886 1.64356,-2.5224 2.87402,-3.4013 0.08789,-0.0528 0.17579,-0.0791 0.26368,-0.0791 0.12304,0 0.21093,0.0263 0.26367,0.0791 0.94924,1.1426 1.76664,2.6279 2.45214,4.456 0.7031,1.8282 1.0547,3.4893 1.0547,4.9834 0,1.6875 -0.4043,3.2696 -1.2129,4.7461 -0.9141,1.5645 -2.09179,3.1817 -3.5332,4.8516 0.36914,1.1601 0.86133,2.97948 1.47656,5.458 M 12.1553,5.35254 c 0.914,-0.33399 1.6259,-0.90527 2.1357,-1.71387 0.5625,-0.77344 0.8438,-1.64355 0.8438,-2.61035 0,-1.248047 -0.4219,-2.35547 -1.2657,-3.32227 -0.8613,-1.00195 -1.9599,-1.56445 -3.2959,-1.6875 0.7559,3.708989 1.2832,6.82032 1.5821,9.33399 M 1.95117,-0.738281 c 0,1.740231 0.70313,3.269531 2.10938,4.587891 1.4414,1.2832 3.05859,1.9248 4.85156,1.9248 0.73828,0 1.45899,-0.05273 2.16209,-0.1582 -0.2812,-2.67187 -0.8349,-5.871093 -1.66111,-9.59766 -1.00196,0.10547 -1.80176,0.45704 -2.39942,1.05469 -0.58008,0.61524 -0.87012,1.30957 -0.87012,2.08301 0,1.335938 0.71192,2.41699 2.13575,3.24316 0.12304,0.12305 0.18457,0.25489 0.18457,0.39551 0,0.14063 -0.06153,0.27246 -0.18457,0.39551 C 8.17383,3.31348 8.04199,3.375 7.88379,3.375 7.86621,3.375 7.78711,3.35742 7.64648,3.32227 6.64453,2.77734 5.87109,2.07422 5.32617,1.21289 4.81641,0.298828 4.56152,-0.624023 4.56152,-1.55566 c 0,-1.21289 0.37793,-2.31153 1.13379,-3.2959 C 6.48633,-5.83594 7.51465,-6.46875 8.78027,-6.75 8.28809,-8.71875 7.88379,-10.2568 7.56738,-11.3643 7.28613,-11.0479 6.94775,-10.6655 6.55225,-10.2173 6.15674,-9.76904 5.92383,-9.50098 5.85352,-9.41309 5.2207,-8.58691 4.7373,-7.94531 4.40332,-7.48828 3.80566,-6.66211 3.36621,-5.9502 3.08496,-5.35254 2.78613,-4.68457 2.52246,-3.95508 2.29395,-3.16406 2.06543,-2.4082 1.95117,-1.59961 1.95117,-0.738281 M 10.7578,-27.5537 c -1.31835,0.6504 -2.35546,1.582 -3.11132,2.7949 -0.77343,1.2481 -1.16015,2.5928 -1.16015,4.0342 0,1.2656 0.3164,2.9707 0.94922,5.1152 1.26562,-1.5293 2.21484,-2.9443 2.84765,-4.2451 0.668,-1.3711 1.002,-2.8037 1.002,-4.2978 0,-1.125 -0.1758,-2.2588 -0.5274,-3.4014 M 7.85742,20.5664 C 8.31445,20.1094 8.54297,19.6523 8.54297,19.1953 8.50781,18.8262 8.34961,18.5449 8.06836,18.3516 7.75195,18.1406 7.38281,18.0352 6.96094,18.0352 c -0.29883,0 -0.54492,0.0966 -0.73828,0.29 -0.17578,0.1758 -0.26368,0.3955 -0.26368,0.6592 0,0.3164 0.13184,0.5537 0.39551,0.7119 l 1.50293,0.8701 m 0.42188,0.2373 c 0.73828,0.4043 1.10742,0.9492 1.10742,1.6348 l 0,0.0791 c 0,0.5449 -0.21973,1.0019 -0.65918,1.3711 -0.43945,0.3867 -1.06348,0.5801 -1.87207,0.5801 -0.66797,0 -1.24805,-0.1758 -1.74024,-0.5274 -0.49218,-0.334 -0.73828,-0.791 -0.73828,-1.3711 0,-0.2285 0.06153,-0.4394 0.18457,-0.6328 0.14063,-0.2285 0.25489,-0.3867 0.34278,-0.4746 l 0.50097,-0.501 C 4.86035,20.5928 4.58789,20.1094 4.58789,19.5117 c 0,-0.4746 0.21094,-0.8965 0.63281,-1.2656 0.43946,-0.3516 1.01953,-0.5273 1.74024,-0.5273 0.59765,0 1.10742,0.1318 1.52929,0.3955 0.42188,0.2636 0.63282,0.624 0.63282,1.081 0,0.4746 -0.28125,1.0108 -0.84375,1.6084 m -2.47852,0.3955 c -0.52734,0.457 -0.80859,0.9141 -0.84375,1.3711 0.03516,0.4746 0.22852,0.8526 0.58008,1.1338 0.38672,0.2988 0.82617,0.4482 1.31836,0.4482 0.35156,0 0.63281,-0.1142 0.84375,-0.3427 0.21094,-0.211 0.3164,-0.4658 0.3164,-0.7647 C 7.99805,22.6582 7.83984,22.377 7.54102,22.2012 l -1.74024,-1.002"
         id="path126"
         inkscape:connector-curvature="0"
         style="fill-rule:nonzero" />
    </g>
    <g
       transform="matrix(3.1252,0,0,3.1252,40.29,208.346)"
       font-size="27"
       font-weight="400"
       font-style="normal"
       id="g128"
       style="font-style:normal;font-weight:400;font-size:27px;font-family:MScore;fill:none;stroke:#000000;stroke-width:1;stroke-linecap:square;stroke-linejoin:bevel;stroke-opacity:1" />
    <g
       transform="matrix(3.1252,0,0,3.1252,113.696,145.843)"
       font-size="27"
       font-weight="400"
       font-style="normal"
       id="g130"
       style="font-style:normal;font-weight:400;font-size:27px;font-family:MScore;fill:none;stroke:#000000;stroke-width:1;stroke-linecap:square;stroke-linejoin:bevel;stroke-opacity:1" />
    <g
       transform="matrix(3.1252,0,0,3.1252,113.696,166.677)"
       font-size="27"
       font-weight="400"
       font-style="normal"
       id="g132"
       style="font-style:normal;font-weight:400;font-size:27px;font-family:MScore;fill:#000000;fill-opacity:1;stroke:none">
      <path
         vector-effect="none"
         d="m 6.06445,-6.40723 c 0.52735,0 0.97559,-0.06152 1.34473,-0.18457 0.36914,-0.12304 0.60644,-0.18457 0.71191,-0.18457 0.12305,0 0.21973,0.03516 0.29004,0.10547 0.05274,0.05274 0.08789,0.11426 0.10547,0.18457 0,0.03516 -0.01758,0.08789 -0.05273,0.15821 l -7.672854,8.9121 4.508784,0 0,-3.533199 c 0,-0.228511 0.06153,-0.421871 0.18458,-0.580081 0.21093,-0.17578 0.38671,-0.28125 0.52734,-0.3164 0.22851,-0.10547 0.50976,-0.35157 0.84375,-0.73828 0.28125,-0.31641 0.61523,-0.87012 1.00195,-1.66114 0.05274,-0.10547 0.13184,-0.1582 0.23731,-0.1582 0.21093,0 0.33398,0.12305 0.36914,0.36914 l 0,6.61816 1.92483,0 c 0.2461,0 0.3867,0.13184 0.4218,0.39551 0,0.26367 -0.1406,0.39551 -0.4218,0.39551 l -1.92483,0 0,0.21094 c 0,0.70312 0.17578,1.30078 0.52734,1.79297 0.4043,0.49218 0.87891,0.73828 1.42379,0.73828 0.211,0 0.3164,0.10547 0.3164,0.3164 C 10.7314,6.64453 10.626,6.75 10.415,6.75 10.0459,6.75 9.44824,6.69727 8.62207,6.5918 7.86621,6.46875 7.27734,6.40723 6.85547,6.40723 6.41602,6.40723 5.82715,6.46875 5.08887,6.5918 4.29785,6.69727 3.70898,6.75 3.32227,6.75 3.11133,6.75 3.00586,6.64453 3.00586,6.43359 c 0,-0.21093 0.10547,-0.3164 0.31641,-0.3164 0.54492,0 1.01953,-0.2461 1.42382,-0.73828 C 5.11523,4.88672 5.2998,4.28906 5.2998,3.58594 l 0,-0.21094 -4.508784,0 C 0.492188,3.375 0.28125,3.30469 0.158203,3.16406 0.0175781,3.05859 -0.0527344,2.91797 -0.0527344,2.74219 c 0,-0.05274 0.131836,-0.23731 0.3955074,-0.55371 C 0.641602,1.83691 0.958008,1.40625 1.29199,0.896484 1.67871,0.298828 2.04785,-0.316406 2.39941,-0.949219 2.78613,-1.66992 3.09375,-2.49609 3.32227,-3.42773 c 0.26367,-0.94922 0.3955,-1.91602 0.3955,-2.90039 0,-0.28126 0.12305,-0.42188 0.36914,-0.42188 0.05274,0 0.167,0.02637 0.34278,0.0791 0.05273,0.01758 0.1626,0.04395 0.32959,0.0791 0.16699,0.03516 0.30322,0.07032 0.40869,0.10547 0.31641,0.05274 0.61523,0.0791 0.89648,0.0791"
         id="path134"
         inkscape:connector-curvature="0"
         style="fill-rule:nonzero" />
    </g>
    <g
       transform="matrix(3.1252,0,0,3.1252,113.696,145.843)"
       font-size="27"
       font-weight="400"
       font-style="normal"
       id="g136"
       style="font-style:normal;font-weight:400;font-size:27px;font-family:MScore;fill:none;stroke:#000000;stroke-width:1;stroke-linecap:square;stroke-linejoin:bevel;stroke-opacity:1" />
    <g
       transform="matrix(3.1252,0,0,3.1252,113.696,145.843)"
       font-size="27"
       font-weight="400"
       font-style="normal"
       id="g138"
       style="font-style:normal;font-weight:400;font-size:27px;font-family:MScore;fill:none;stroke:#000000;stroke-width:1;stroke-linecap:square;stroke-linejoin:bevel;stroke-opacity:1" />
    <g
       transform="matrix(3.1252,0,0,3.1252,113.696,208.346)"
       font-size="27"
       font-weight="400"
       font-style="normal"
       id="g140"
       style="font-style:normal;font-weight:400;font-size:27px;font-family:MScore;fill:#000000;fill-opacity:1;stroke:none">
      <path
         vector-effect="none"
         d="m 6.06445,-6.40723 c 0.52735,0 0.97559,-0.06152 1.34473,-0.18457 0.36914,-0.12304 0.60644,-0.18457 0.71191,-0.18457 0.12305,0 0.21973,0.03516 0.29004,0.10547 0.05274,0.05274 0.08789,0.11426 0.10547,0.18457 0,0.03516 -0.01758,0.08789 -0.05273,0.15821 l -7.672854,8.9121 4.508784,0 0,-3.533199 c 0,-0.228511 0.06153,-0.421871 0.18458,-0.580081 0.21093,-0.17578 0.38671,-0.28125 0.52734,-0.3164 0.22851,-0.10547 0.50976,-0.35157 0.84375,-0.73828 0.28125,-0.31641 0.61523,-0.87012 1.00195,-1.66114 0.05274,-0.10547 0.13184,-0.1582 0.23731,-0.1582 0.21093,0 0.33398,0.12305 0.36914,0.36914 l 0,6.61816 1.92483,0 c 0.2461,0 0.3867,0.13184 0.4218,0.39551 0,0.26367 -0.1406,0.39551 -0.4218,0.39551 l -1.92483,0 0,0.21094 c 0,0.70312 0.17578,1.30078 0.52734,1.79297 0.4043,0.49218 0.87891,0.73828 1.42379,0.73828 0.211,0 0.3164,0.10547 0.3164,0.3164 C 10.7314,6.64453 10.626,6.75 10.415,6.75 10.0459,6.75 9.44824,6.69727 8.62207,6.5918 7.86621,6.46875 7.27734,6.40723 6.85547,6.40723 6.41602,6.40723 5.82715,6.46875 5.08887,6.5918 4.29785,6.69727 3.70898,6.75 3.32227,6.75 3.11133,6.75 3.00586,6.64453 3.00586,6.43359 c 0,-0.21093 0.10547,-0.3164 0.31641,-0.3164 0.54492,0 1.01953,-0.2461 1.42382,-0.73828 C 5.11523,4.88672 5.2998,4.28906 5.2998,3.58594 l 0,-0.21094 -4.508784,0 C 0.492188,3.375 0.28125,3.30469 0.158203,3.16406 0.0175781,3.05859 -0.0527344,2.91797 -0.0527344,2.74219 c 0,-0.05274 0.131836,-0.23731 0.3955074,-0.55371 C 0.641602,1.83691 0.958008,1.40625 1.29199,0.896484 1.67871,0.298828 2.04785,-0.316406 2.39941,-0.949219 2.78613,-1.66992 3.09375,-2.49609 3.32227,-3.42773 c 0.26367,-0.94922 0.3955,-1.91602 0.3955,-2.90039 0,-0.28126 0.12305,-0.42188 0.36914,-0.42188 0.05274,0 0.167,0.02637 0.34278,0.0791 0.05273,0.01758 0.1626,0.04395 0.32959,0.0791 0.16699,0.03516 0.30322,0.07032 0.40869,0.10547 0.31641,0.05274 0.61523,0.0791 0.89648,0.0791"
         id="path142"
         inkscape:connector-curvature="0"
         style="fill-rule:nonzero" />
    </g>
    <g
       transform="matrix(3.1252,0,0,3.1252,113.696,145.843)"
       font-size="27"
       font-weight="400"
       font-style="normal"
       id="g144"
       style="font-style:normal;font-weight:400;font-size:27px;font-family:MScore;fill:none;stroke:#000000;stroke-width:1;stroke-linecap:square;stroke-linejoin:bevel;stroke-opacity:1" />
    <g
       transform="matrix(3.1252,0,0,3.1252,986.029,187.512)"
       font-size="27"
       font-weight="400"
       font-style="normal"
       id="g146"
       style="font-style:normal;font-weight:400;font-size:27px;font-family:MScore;fill:none;stroke:#000000;stroke-width:1;stroke-linecap:square;stroke-linejoin:bevel;stroke-opacity:1" />
    <g
       transform="matrix(3.1252,0,0,3.1252,986.029,187.512)"
       font-size="27"
       font-weight="400"
       font-style="normal"
       id="g148"
       style="font-style:normal;font-weight:400;font-size:27px;font-family:MScore;fill:#000000;fill-opacity:1;stroke:none">
      <path
         vector-effect="none"
         d="m -0.158203,-2.10938 c 0,-0.3164 0.1757811,-0.66796 0.527344,-1.05468 C 0.632812,-3.44531 1.01953,-3.7793 1.5293,-4.16602 1.91602,-4.42969 2.29395,-4.8252 2.66309,-5.35254 3.01465,-5.8623 3.19043,-6.41602 3.19043,-7.01367 c 0,-0.70313 -0.22852,-1.32715 -0.68555,-1.87207 L 1.55566,-10.0195 c -0.07031,-0.0703 -0.10546,-0.1582 -0.10546,-0.2637 0,-0.1055 0.05273,-0.2022 0.1582,-0.29 0.12305,-0.0879 0.22851,-0.1319 0.3164,-0.1319 0.12305,0 0.21973,0.0528 0.29004,0.1582 l 4.08692,4.85159 c 0.17578,0.22851 0.26367,0.45703 0.26367,0.68554 0,0.31641 -0.17578,0.66797 -0.52734,1.05469 C 5.80957,-3.70898 5.43164,-3.375 4.9043,-2.95312 4.5,-2.70703 4.11328,-2.31152 3.74414,-1.7666 3.39258,-1.25684 3.2168,-0.703125 3.2168,-0.105469 c 0,0.738281 0.21093,1.362309 0.63281,1.872069 l 2.26758,2.66309 c 0.05273,0.05273 0.09668,0.14062 0.13183,0.26367 0,0.12305 -0.04394,0.22852 -0.13183,0.31641 C 5.99414,5.09766 5.88867,5.1416 5.80078,5.1416 5.76562,5.1416 5.625,5.04492 5.37891,4.85156 5.11523,4.64062 4.76367,4.43848 4.32422,4.24512 3.83203,4.05176 3.34863,3.95508 2.87402,3.95508 c -0.43945,0 -0.7998,0.12304 -1.08105,0.36914 -0.24609,0.24609 -0.36914,0.7207 -0.36914,1.42383 0,1.07226 0.25488,1.91601 0.76465,2.53125 C 2.24121,8.34961 2.25,8.4375 2.21484,8.54297 2.17969,8.61328 2.11816,8.64844 2.03027,8.64844 1.90723,8.64844 1.63477,8.33203 1.21289,7.69922 0.773438,7.03125 0.360352,6.2666 -0.0263672,5.40527 -0.430664,4.49121 -0.632812,3.73535 -0.632812,3.1377 c 0,-0.75586 0.360351,-1.13379 1.081054,-1.13379 0.826168,0 1.898438,0.28125 3.216798,0.84375 L 0.105469,-1.42383 c -0.1757815,-0.22851 -0.263672,-0.45703 -0.263672,-0.68555"
         id="path150"
         inkscape:connector-curvature="0"
         style="fill-rule:nonzero" />
    </g>
    <g
       transform="matrix(3.1252,0,0,3.1252,986.029,187.512)"
       font-size="27"
       font-weight="400"
       font-style="normal"
       id="g152"
       style="font-style:normal;font-weight:400;font-size:27px;font-family:MScore;fill:none;stroke:#000000;stroke-width:1;stroke-linecap:square;stroke-linejoin:bevel;stroke-opacity:1" />
    <g
       transform="matrix(3.1252,0,0,3.1252,451.074,187.512)"
       font-size="27"
       font-weight="400"
       font-style="normal"
       id="g154"
       style="font-style:normal;font-weight:400;font-size:27px;font-family:MScore;fill:none;stroke:#000000;stroke-width:1;stroke-linecap:square;stroke-linejoin:bevel;stroke-opacity:1" />
    <g
       transform="matrix(3.1252,0,0,3.1252,451.074,187.512)"
       font-size="27"
       font-weight="400"
       font-style="normal"
       id="g156"
       style="font-style:normal;font-weight:400;font-size:27px;font-family:MScore;fill:#000000;fill-opacity:1;stroke:none">
      <path
         vector-effect="none"
         d="m -0.158203,-2.10938 c 0,-0.3164 0.1757811,-0.66796 0.527344,-1.05468 C 0.632812,-3.44531 1.01953,-3.7793 1.5293,-4.16602 1.91602,-4.42969 2.29395,-4.8252 2.66309,-5.35254 3.01465,-5.8623 3.19043,-6.41602 3.19043,-7.01367 c 0,-0.70313 -0.22852,-1.32715 -0.68555,-1.87207 L 1.55566,-10.0195 c -0.07031,-0.0703 -0.10546,-0.1582 -0.10546,-0.2637 0,-0.1055 0.05273,-0.2022 0.1582,-0.29 0.12305,-0.0879 0.22851,-0.1319 0.3164,-0.1319 0.12305,0 0.21973,0.0528 0.29004,0.1582 l 4.08692,4.85159 c 0.17578,0.22851 0.26367,0.45703 0.26367,0.68554 0,0.31641 -0.17578,0.66797 -0.52734,1.05469 C 5.80957,-3.70898 5.43164,-3.375 4.9043,-2.95312 4.5,-2.70703 4.11328,-2.31152 3.74414,-1.7666 3.39258,-1.25684 3.2168,-0.703125 3.2168,-0.105469 c 0,0.738281 0.21093,1.362309 0.63281,1.872069 l 2.26758,2.66309 c 0.05273,0.05273 0.09668,0.14062 0.13183,0.26367 0,0.12305 -0.04394,0.22852 -0.13183,0.31641 C 5.99414,5.09766 5.88867,5.1416 5.80078,5.1416 5.76562,5.1416 5.625,5.04492 5.37891,4.85156 5.11523,4.64062 4.76367,4.43848 4.32422,4.24512 3.83203,4.05176 3.34863,3.95508 2.87402,3.95508 c -0.43945,0 -0.7998,0.12304 -1.08105,0.36914 -0.24609,0.24609 -0.36914,0.7207 -0.36914,1.42383 0,1.07226 0.25488,1.91601 0.76465,2.53125 C 2.24121,8.34961 2.25,8.4375 2.21484,8.54297 2.17969,8.61328 2.11816,8.64844 2.03027,8.64844 1.90723,8.64844 1.63477,8.33203 1.21289,7.69922 0.773438,7.03125 0.360352,6.2666 -0.0263672,5.40527 -0.430664,4.49121 -0.632812,3.73535 -0.632812,3.1377 c 0,-0.75586 0.360351,-1.13379 1.081054,-1.13379 0.826168,0 1.898438,0.28125 3.216798,0.84375 L 0.105469,-1.42383 c -0.1757815,-0.22851 -0.263672,-0.45703 -0.263672,-0.68555"
         id="path158"
         inkscape:connector-curvature="0"
         style="fill-rule:nonzero" />
    </g>
    <g
       transform="matrix(3.1252,0,0,3.1252,451.074,187.512)"
       font-size="27"
       font-weight="400"
       font-style="normal"
       id="g160"
       style="font-style:normal;font-weight:400;font-size:27px;font-family:MScore;fill:none;stroke:#000000;stroke-width:1;stroke-linecap:square;stroke-linejoin:bevel;stroke-opacity:1" />
  </g>
</svg>
