<?xml version="1.0" encoding="UTF-8" standalone="no"?>
<svg
   xmlns:dc="http://purl.org/dc/elements/1.1/"
   xmlns:cc="http://creativecommons.org/ns#"
   xmlns:rdf="http://www.w3.org/1999/02/22-rdf-syntax-ns#"
   xmlns:svg="http://www.w3.org/2000/svg"
   xmlns="http://www.w3.org/2000/svg"
   xmlns:sodipodi="http://sodipodi.sourceforge.net/DTD/sodipodi-0.dtd"
   xmlns:inkscape="http://www.inkscape.org/namespaces/inkscape"
   width="59.069103mm"
   height="56.302238mm"
   viewBox="0 0 697.94931 665.34746"
   version="1.2"
   id="svg2"
   inkscape:version="0.91 r13725"
   sodipodi:docname="Dm9.svg">
  <metadata
     id="metadata252">
    <rdf:RDF>
      <cc:Work
         rdf:about="">
        <dc:format>image/svg+xml</dc:format>
        <dc:type
           rdf:resource="http://purl.org/dc/dcmitype/StillImage" />
        <dc:title>Untitled-4</dc:title>
      </cc:Work>
    </rdf:RDF>
  </metadata>
  <sodipodi:namedview
     pagecolor="#ffffff"
     bordercolor="#666666"
     borderopacity="1"
     objecttolerance="10"
     gridtolerance="10"
     guidetolerance="10"
     inkscape:pageopacity="0"
     inkscape:pageshadow="2"
     inkscape:window-width="1538"
     inkscape:window-height="877"
     id="namedview250"
     showgrid="false"
     fit-margin-top="3"
     fit-margin-left="1"
     fit-margin-right="1"
     fit-margin-bottom="5"
     inkscape:zoom="1.10332"
     inkscape:cx="104.64989"
     inkscape:cy="102.60565"
     inkscape:window-x="54"
     inkscape:window-y="-8"
     inkscape:window-maximized="1"
     inkscape:current-layer="svg2" />
  <title
     id="title4">Untitled-4</title>
  <desc
     id="desc6">Generated by MuseScore 2.0.2</desc>
  <defs
     id="defs8" />
  <g
     id="g10"
     style="fill:none;fill-rule:evenodd;stroke:#000000;stroke-width:1;stroke-linecap:square;stroke-linejoin:bevel"
     transform="translate(-10.672635,-33.549726)">
    <g
       transform="matrix(3.125,0,0,3.125,22.4409,482.717)"
       font-size="34.375"
       font-weight="400"
       font-style="normal"
       id="g12"
       style="font-style:normal;font-weight:400;font-size:34.375px;font-family:'MS Shell Dlg 2';fill:none;stroke:#000000;stroke-width:0.53336698;stroke-linecap:butt;stroke-linejoin:bevel;stroke-opacity:1">
      <polyline
         vector-effect="none"
         points="0,0 215.811,0 "
         id="polyline14"
         style="fill:none" />
      <polyline
         vector-effect="none"
         points="0,10.0006 215.811,10.0006 "
         id="polyline16"
         style="fill:none" />
      <polyline
         vector-effect="none"
         points="0,20.0013 215.811,20.0013 "
         id="polyline18"
         style="fill:none" />
      <polyline
         vector-effect="none"
         points="0,30.0019 215.811,30.0019 "
         id="polyline20"
         style="fill:none" />
      <polyline
         vector-effect="none"
         points="0,40.0025 215.811,40.0025 "
         id="polyline22"
         style="fill:none" />
      <polyline
         vector-effect="none"
         points="0,50.0031 215.811,50.0031 "
         id="polyline24"
         style="fill:none" />
    </g>
    <g
       transform="matrix(3.125,0,0,3.125,22.4409,263.953)"
       font-size="34.375"
       font-weight="400"
       font-style="normal"
       id="g26"
       style="font-style:normal;font-weight:400;font-size:34.375px;font-family:'MS Shell Dlg 2';fill:none;stroke:#000000;stroke-width:0.53336698;stroke-linecap:butt;stroke-linejoin:bevel;stroke-opacity:1">
      <polyline
         vector-effect="none"
         points="0,0 215.811,0 "
         id="polyline28"
         style="fill:none" />
      <polyline
         vector-effect="none"
         points="0,6.66709 215.811,6.66709 "
         id="polyline30"
         style="fill:none" />
      <polyline
         vector-effect="none"
         points="0,13.3342 215.811,13.3342 "
         id="polyline32"
         style="fill:none" />
      <polyline
         vector-effect="none"
         points="0,20.0013 215.811,20.0013 "
         id="polyline34"
         style="fill:none" />
      <polyline
         vector-effect="none"
         points="0,26.6683 215.811,26.6683 "
         id="polyline36"
         style="fill:none" />
    </g>
    <g
       transform="matrix(3.125,0,0,3.125,22.4409,263.953)"
       font-size="34.375"
       font-weight="400"
       font-style="normal"
       id="g38"
       style="font-style:normal;font-weight:400;font-size:34.375px;font-family:'MS Shell Dlg 2';fill:none;stroke:#000000;stroke-width:1.06673002;stroke-linecap:butt;stroke-linejoin:bevel;stroke-opacity:1">
      <polyline
         vector-effect="none"
         points="0.533367,0 0.533367,120.008 "
         id="polyline40"
         style="fill:none" />
    </g>
    <g
       transform="matrix(3.125,0,0,3.125,674.766,482.717)"
       font-size="34.375"
       font-weight="400"
       font-style="normal"
       id="g42"
       style="font-style:normal;font-weight:400;font-size:34.375px;font-family:'MS Shell Dlg 2';fill:none;stroke:#000000;stroke-width:1.06673002;stroke-linecap:butt;stroke-linejoin:bevel;stroke-opacity:1">
      <polyline
         vector-effect="none"
         points="0.533367,0 0.533367,50.0031 "
         id="polyline44"
         style="fill:none" />
    </g>
    <g
       transform="matrix(3.125,0,0,3.125,674.766,482.717)"
       font-size="34.375"
       font-weight="400"
       font-style="normal"
       id="g46"
       style="font-style:normal;font-weight:400;font-size:34.375px;font-family:'MS Shell Dlg 2';fill:none;stroke:#000000;stroke-width:3.33353996;stroke-linecap:butt;stroke-linejoin:bevel;stroke-opacity:1">
      <polyline
         vector-effect="none"
         points="5.40034,0 5.40034,50.0031 "
         id="polyline48"
         style="fill:none" />
    </g>
    <g
       transform="matrix(3.125,0,0,3.125,674.766,263.953)"
       font-size="34.375"
       font-weight="400"
       font-style="normal"
       id="g50"
       style="font-style:normal;font-weight:400;font-size:34.375px;font-family:'MS Shell Dlg 2';fill:none;stroke:#000000;stroke-width:1.06673002;stroke-linecap:butt;stroke-linejoin:bevel;stroke-opacity:1">
      <polyline
         vector-effect="none"
         points="0.533367,0 0.533367,26.6683 "
         id="polyline52"
         style="fill:none" />
    </g>
    <g
       transform="matrix(3.125,0,0,3.125,674.766,263.953)"
       font-size="34.375"
       font-weight="400"
       font-style="normal"
       id="g54"
       style="font-style:normal;font-weight:400;font-size:34.375px;font-family:'MS Shell Dlg 2';fill:none;stroke:#000000;stroke-width:3.33353996;stroke-linecap:butt;stroke-linejoin:bevel;stroke-opacity:1">
      <polyline
         vector-effect="none"
         points="5.40034,0 5.40034,26.6683 "
         id="polyline56"
         style="fill:none" />
    </g>
    <g
       transform="matrix(3.125,0,0,3.125,194.018,513.969)"
       font-size="34.375"
       font-weight="400"
       font-style="normal"
       id="g58"
       style="font-style:normal;font-weight:400;font-size:34.375px;font-family:'MS Shell Dlg 2';fill:#ffffff;fill-opacity:1;stroke:none">
      <path
         vector-effect="none"
         d="m -0.666709,-5.00031 8.333859,0 0,10.00062 -8.333859,0 0,-10.00062"
         id="path60"
         inkscape:connector-curvature="0"
         style="fill-rule:evenodd" />
    </g>
    <g
       transform="matrix(3.1252,0,0,3.1252,194.018,513.969)"
       font-size="12"
       font-weight="400"
       font-style="normal"
       id="g62"
       style="font-style:normal;font-weight:400;font-size:12px;font-family:FreeSans;fill:none;stroke:#000000;stroke-width:1;stroke-linecap:square;stroke-linejoin:bevel;stroke-opacity:1" />
    <g
       transform="matrix(3.1252,0,0,3.1252,194.018,528.032)"
       font-size="12"
       font-weight="400"
       font-style="normal"
       id="g64"
       style="font-style:normal;font-weight:400;font-size:12px;font-family:FreeSans;fill:#000000;fill-opacity:1;stroke:none">
      <path
         vector-effect="none"
         d="m 5.73319,-8.508 0,0.984 -3.56119,0 -0.32981,2.43694 C 2.31231,-5.46369 2.83425,-5.652 3.408,-5.652 c 0.82675,0 1.49744,0.26434 2.01206,0.79303 0.51463,0.52869 0.77194,1.21678 0.77194,2.06428 0,0.90263 -0.27534,1.64006 -0.82603,2.212315 C 4.81528,-0.010125 4.10663,0.276 3.24,0.276 2.912,0.276 2.61,0.24 2.334,0.168 2.058,0.096 1.83,0.01 1.65,-0.09 1.47,-0.19 1.306,-0.322 1.158,-0.486 1.01,-0.65 0.898,-0.794 0.822,-0.918 0.746,-1.042 0.674,-1.198 0.606,-1.386 0.538,-1.574 0.496,-1.704 0.48,-1.776 0.464,-1.848 0.444,-1.952 0.42,-2.088 l 1.056,0 c 0.248,0.92 0.828,1.38 1.74,1.38 0.576,0 1.03,-0.173906 1.362,-0.52172 0.332,-0.34781 0.498,-0.82203 0.498,-1.42266 0,-0.6245 -0.168,-1.11656 -0.504,-1.47618 C 4.236,-4.48819 3.784,-4.668 3.216,-4.668 c -0.328,0 -0.608,0.0545 -0.84,0.1635 -0.232,0.109 -0.472,0.3025 -0.72,0.5805 l -0.972,0 0.63337,-4.584 4.41582,0"
         id="path66"
         inkscape:connector-curvature="0"
         style="fill-rule:nonzero" />
    </g>
    <g
       transform="matrix(3.1252,0,0,3.1252,194.018,513.969)"
       font-size="12"
       font-weight="400"
       font-style="normal"
       id="g68"
       style="font-style:normal;font-weight:400;font-size:12px;font-family:FreeSans;fill:none;stroke:#000000;stroke-width:1;stroke-linecap:square;stroke-linejoin:bevel;stroke-opacity:1" />
    <g
       transform="matrix(3.125,0,0,3.125,194.018,545.22)"
       font-size="12"
       font-weight="400"
       font-style="normal"
       id="g70"
       style="font-style:normal;font-weight:400;font-size:12px;font-family:FreeSans;fill:#ffffff;fill-opacity:1;stroke:none">
      <path
         vector-effect="none"
         d="m -0.666709,-5.00031 8.333859,0 0,10.00062 -8.333859,0 0,-10.00062"
         id="path72"
         inkscape:connector-curvature="0"
         style="fill-rule:evenodd" />
    </g>
    <g
       transform="matrix(3.1252,0,0,3.1252,194.018,545.22)"
       font-size="12"
       font-weight="400"
       font-style="normal"
       id="g74"
       style="font-style:normal;font-weight:400;font-size:12px;font-family:FreeSans;fill:none;stroke:#000000;stroke-width:1;stroke-linecap:square;stroke-linejoin:bevel;stroke-opacity:1" />
    <g
       transform="matrix(3.1252,0,0,3.1252,194.018,559.284)"
       font-size="12"
       font-weight="400"
       font-style="normal"
       id="g76"
       style="font-style:normal;font-weight:400;font-size:12px;font-family:FreeSans;fill:#000000;fill-opacity:1;stroke:none">
      <path
         vector-effect="none"
         d="m 5.73319,-8.508 0,0.984 -3.56119,0 -0.32981,2.43694 C 2.31231,-5.46369 2.83425,-5.652 3.408,-5.652 c 0.82675,0 1.49744,0.26434 2.01206,0.79303 0.51463,0.52869 0.77194,1.21678 0.77194,2.06428 0,0.90263 -0.27534,1.64006 -0.82603,2.212315 C 4.81528,-0.010125 4.10663,0.276 3.24,0.276 2.912,0.276 2.61,0.24 2.334,0.168 2.058,0.096 1.83,0.01 1.65,-0.09 1.47,-0.19 1.306,-0.322 1.158,-0.486 1.01,-0.65 0.898,-0.794 0.822,-0.918 0.746,-1.042 0.674,-1.198 0.606,-1.386 0.538,-1.574 0.496,-1.704 0.48,-1.776 0.464,-1.848 0.444,-1.952 0.42,-2.088 l 1.056,0 c 0.248,0.92 0.828,1.38 1.74,1.38 0.576,0 1.03,-0.173906 1.362,-0.52172 0.332,-0.34781 0.498,-0.82203 0.498,-1.42266 0,-0.6245 -0.168,-1.11656 -0.504,-1.47618 C 4.236,-4.48819 3.784,-4.668 3.216,-4.668 c -0.328,0 -0.608,0.0545 -0.84,0.1635 -0.232,0.109 -0.472,0.3025 -0.72,0.5805 l -0.972,0 0.63337,-4.584 4.41582,0"
         id="path78"
         inkscape:connector-curvature="0"
         style="fill-rule:nonzero" />
    </g>
    <g
       transform="matrix(3.1252,0,0,3.1252,194.018,545.22)"
       font-size="12"
       font-weight="400"
       font-style="normal"
       id="g80"
       style="font-style:normal;font-weight:400;font-size:12px;font-family:FreeSans;fill:none;stroke:#000000;stroke-width:1;stroke-linecap:square;stroke-linejoin:bevel;stroke-opacity:1" />
    <g
       transform="matrix(3.125,0,0,3.125,194.018,576.472)"
       font-size="12"
       font-weight="400"
       font-style="normal"
       id="g82"
       style="font-style:normal;font-weight:400;font-size:12px;font-family:FreeSans;fill:#ffffff;fill-opacity:1;stroke:none">
      <path
         vector-effect="none"
         d="m -0.666709,-5.00031 8.333859,0 0,10.00062 -8.333859,0 0,-10.00062"
         id="path84"
         inkscape:connector-curvature="0"
         style="fill-rule:evenodd" />
    </g>
    <g
       transform="matrix(3.1252,0,0,3.1252,194.018,576.472)"
       font-size="12"
       font-weight="400"
       font-style="normal"
       id="g86"
       style="font-style:normal;font-weight:400;font-size:12px;font-family:FreeSans;fill:none;stroke:#000000;stroke-width:1;stroke-linecap:square;stroke-linejoin:bevel;stroke-opacity:1" />
    <g
       transform="matrix(3.1252,0,0,3.1252,194.018,590.536)"
       font-size="12"
       font-weight="400"
       font-style="normal"
       id="g88"
       style="font-style:normal;font-weight:400;font-size:12px;font-family:FreeSans;fill:#000000;fill-opacity:1;stroke:none">
      <path
         vector-effect="none"
         d="m 3.29381,-7.524 c -0.60575,0 -1.02215,0.16053 -1.24922,0.48159 C 1.81753,-6.72134 1.696,-6.29387 1.68,-5.76 l -1.116,0 c 0.04075,-1.832 0.94669,-2.748 2.71781,-2.748 0.81738,0 1.45875,0.20681 1.92413,0.62044 0.46537,0.41362 0.69806,0.98237 0.69806,1.70625 0,0.8475 -0.40788,1.42425 -1.22363,1.73025 0.52463,0.17812 0.90172,0.42709 1.13129,0.7469 0.22956,0.31982 0.34434,0.75504 0.34434,1.30566 0,0.81488 -0.26472,1.464344 -0.79416,1.948406 C 4.83241,0.0339688 4.12713,0.276 3.246,0.276 1.4685,0.276 0.5145,-0.64 0.384,-2.472 l 1.116,0 c 0.04,0.59963 0.2035,1.04353 0.4905,1.33172 0.287,0.288186 0.71744,0.43228 1.29131,0.43228 0.55013,0 0.98069,-0.147781 1.29169,-0.44334 C 4.8845,-1.44691 5.04,-1.85869 5.04,-2.38669 5.04,-3.40356 4.45394,-3.912 3.28181,-3.912 L 2.8395,-3.9 l -0.13144,0 0,-0.984 C 3.46519,-4.89913 4.00113,-4.99016 4.31588,-5.15709 4.63063,-5.32403 4.788,-5.65406 4.788,-6.14719 4.788,-6.57194 4.6545,-6.90759 4.3875,-7.15416 4.1205,-7.40072 3.75594,-7.524 3.29381,-7.524"
         id="path90"
         inkscape:connector-curvature="0"
         style="fill-rule:nonzero" />
    </g>
    <g
       transform="matrix(3.1252,0,0,3.1252,194.018,576.472)"
       font-size="12"
       font-weight="400"
       font-style="normal"
       id="g92"
       style="font-style:normal;font-weight:400;font-size:12px;font-family:FreeSans;fill:none;stroke:#000000;stroke-width:1;stroke-linecap:square;stroke-linejoin:bevel;stroke-opacity:1" />
    <g
       transform="matrix(3.125,0,0,3.125,194.018,607.724)"
       font-size="12"
       font-weight="400"
       font-style="normal"
       id="g94"
       style="font-style:normal;font-weight:400;font-size:12px;font-family:FreeSans;fill:#ffffff;fill-opacity:1;stroke:none">
      <path
         vector-effect="none"
         d="m -0.666709,-5.00031 8.333859,0 0,10.00062 -8.333859,0 0,-10.00062"
         id="path96"
         inkscape:connector-curvature="0"
         style="fill-rule:evenodd" />
    </g>
    <g
       transform="matrix(3.1252,0,0,3.1252,194.018,607.724)"
       font-size="12"
       font-weight="400"
       font-style="normal"
       id="g98"
       style="font-style:normal;font-weight:400;font-size:12px;font-family:FreeSans;fill:none;stroke:#000000;stroke-width:1;stroke-linecap:square;stroke-linejoin:bevel;stroke-opacity:1" />
    <g
       transform="matrix(3.1252,0,0,3.1252,194.018,621.788)"
       font-size="12"
       font-weight="400"
       font-style="normal"
       id="g100"
       style="font-style:normal;font-weight:400;font-size:12px;font-family:FreeSans;fill:#000000;fill-opacity:1;stroke:none">
      <path
         vector-effect="none"
         d="m 5.73319,-8.508 0,0.984 -3.56119,0 -0.32981,2.43694 C 2.31231,-5.46369 2.83425,-5.652 3.408,-5.652 c 0.82675,0 1.49744,0.26434 2.01206,0.79303 0.51463,0.52869 0.77194,1.21678 0.77194,2.06428 0,0.90263 -0.27534,1.64006 -0.82603,2.212315 C 4.81528,-0.010125 4.10663,0.276 3.24,0.276 2.912,0.276 2.61,0.24 2.334,0.168 2.058,0.096 1.83,0.01 1.65,-0.09 1.47,-0.19 1.306,-0.322 1.158,-0.486 1.01,-0.65 0.898,-0.794 0.822,-0.918 0.746,-1.042 0.674,-1.198 0.606,-1.386 0.538,-1.574 0.496,-1.704 0.48,-1.776 0.464,-1.848 0.444,-1.952 0.42,-2.088 l 1.056,0 c 0.248,0.92 0.828,1.38 1.74,1.38 0.576,0 1.03,-0.173906 1.362,-0.52172 0.332,-0.34781 0.498,-0.82203 0.498,-1.42266 0,-0.6245 -0.168,-1.11656 -0.504,-1.47618 C 4.236,-4.48819 3.784,-4.668 3.216,-4.668 c -0.328,0 -0.608,0.0545 -0.84,0.1635 -0.232,0.109 -0.472,0.3025 -0.72,0.5805 l -0.972,0 0.63337,-4.584 4.41582,0"
         id="path102"
         inkscape:connector-curvature="0"
         style="fill-rule:nonzero" />
    </g>
    <g
       transform="matrix(3.1252,0,0,3.1252,194.018,607.724)"
       font-size="12"
       font-weight="400"
       font-style="normal"
       id="g104"
       style="font-style:normal;font-weight:400;font-size:12px;font-family:FreeSans;fill:none;stroke:#000000;stroke-width:1;stroke-linecap:square;stroke-linejoin:bevel;stroke-opacity:1" />
    <g
       transform="matrix(3.1252,0,0,3.1252,182.415,274.37)"
       font-size="27"
       font-weight="400"
       font-style="normal"
       id="g106"
       style="font-style:normal;font-weight:400;font-size:27px;font-family:MScore;fill:none;stroke:#000000;stroke-width:1;stroke-linecap:square;stroke-linejoin:bevel;stroke-opacity:1" />
    <g
       transform="matrix(3.1252,0,0,3.1252,182.415,274.37)"
       font-size="27"
       font-weight="400"
       font-style="normal"
       id="g108"
       style="font-style:normal;font-weight:400;font-size:27px;font-family:MScore;fill:#000000;fill-opacity:1;stroke:none">
      <path
         vector-effect="none"
         d="m 5.80078,-3.03223 c -0.63281,0 -1.08984,0.21973 -1.37109,0.65918 -0.31641,0.42188 -0.47461,0.99317 -0.47461,1.71387 0,0.826172 0.21972,1.538086 0.65918,2.13574 0.43945,0.58008 0.92285,0.98438 1.45019,1.21289 0.47461,0.22852 0.97559,0.34278 1.50293,0.34278 0.61524,0 1.08106,-0.21973 1.39746,-0.65918 C 9.26367,1.93359 9.41309,1.3623 9.41309,0.65918 9.41309,-0.166992 9.19336,-0.878906 8.75391,-1.47656 8.31445,-2.03906 7.83984,-2.44336 7.33008,-2.68945 6.82031,-2.91797 6.31055,-3.03223 5.80078,-3.03223 m 0.89649,-0.68554 c 1.89843,0 3.48043,0.36914 4.74613,1.10742 1.2832,0.73828 1.9248,1.6084 1.9248,2.61035 0,1.07227 -0.6592,1.95117 -1.9776,2.63672 -1.3183,0.7207 -2.88279,1.08105 -4.69333,1.08105 -1.86329,0 -3.44532,-0.36914 -4.7461,-1.10742 C 0.650391,1.87207 0,1.00195 0,0 0,-1.07227 0.667969,-1.95117 2.00391,-2.63672 3.32227,-3.35742 4.88672,-3.71777 6.69727,-3.71777"
         id="path110"
         inkscape:connector-curvature="0"
         style="fill-rule:nonzero" />
    </g>
    <g
       transform="matrix(3.1252,0,0,3.1252,182.415,274.37)"
       font-size="27"
       font-weight="400"
       font-style="normal"
       id="g112"
       style="font-style:normal;font-weight:400;font-size:27px;font-family:MScore;fill:none;stroke:#000000;stroke-width:1;stroke-linecap:square;stroke-linejoin:bevel;stroke-opacity:1" />
    <g
       transform="matrix(3.1252,0,0,3.1252,182.415,295.205)"
       font-size="27"
       font-weight="400"
       font-style="normal"
       id="g114"
       style="font-style:normal;font-weight:400;font-size:27px;font-family:MScore;fill:none;stroke:#000000;stroke-width:1;stroke-linecap:square;stroke-linejoin:bevel;stroke-opacity:1" />
    <g
       transform="matrix(3.1252,0,0,3.1252,182.415,295.205)"
       font-size="27"
       font-weight="400"
       font-style="normal"
       id="g116"
       style="font-style:normal;font-weight:400;font-size:27px;font-family:MScore;fill:#000000;fill-opacity:1;stroke:none">
      <path
         vector-effect="none"
         d="m 5.80078,-3.03223 c -0.63281,0 -1.08984,0.21973 -1.37109,0.65918 -0.31641,0.42188 -0.47461,0.99317 -0.47461,1.71387 0,0.826172 0.21972,1.538086 0.65918,2.13574 0.43945,0.58008 0.92285,0.98438 1.45019,1.21289 0.47461,0.22852 0.97559,0.34278 1.50293,0.34278 0.61524,0 1.08106,-0.21973 1.39746,-0.65918 C 9.26367,1.93359 9.41309,1.3623 9.41309,0.65918 9.41309,-0.166992 9.19336,-0.878906 8.75391,-1.47656 8.31445,-2.03906 7.83984,-2.44336 7.33008,-2.68945 6.82031,-2.91797 6.31055,-3.03223 5.80078,-3.03223 m 0.89649,-0.68554 c 1.89843,0 3.48043,0.36914 4.74613,1.10742 1.2832,0.73828 1.9248,1.6084 1.9248,2.61035 0,1.07227 -0.6592,1.95117 -1.9776,2.63672 -1.3183,0.7207 -2.88279,1.08105 -4.69333,1.08105 -1.86329,0 -3.44532,-0.36914 -4.7461,-1.10742 C 0.650391,1.87207 0,1.00195 0,0 0,-1.07227 0.667969,-1.95117 2.00391,-2.63672 3.32227,-3.35742 4.88672,-3.71777 6.69727,-3.71777"
         id="path118"
         inkscape:connector-curvature="0"
         style="fill-rule:nonzero" />
    </g>
    <g
       transform="matrix(3.1252,0,0,3.1252,182.415,295.205)"
       font-size="27"
       font-weight="400"
       font-style="normal"
       id="g120"
       style="font-style:normal;font-weight:400;font-size:27px;font-family:MScore;fill:none;stroke:#000000;stroke-width:1;stroke-linecap:square;stroke-linejoin:bevel;stroke-opacity:1" />
    <g
       transform="matrix(3.1252,0,0,3.1252,182.415,336.874)"
       font-size="27"
       font-weight="400"
       font-style="normal"
       id="g122"
       style="font-style:normal;font-weight:400;font-size:27px;font-family:MScore;fill:none;stroke:#000000;stroke-width:1;stroke-linecap:square;stroke-linejoin:bevel;stroke-opacity:1" />
    <g
       transform="matrix(3.1252,0,0,3.1252,182.415,336.874)"
       font-size="27"
       font-weight="400"
       font-style="normal"
       id="g124"
       style="font-style:normal;font-weight:400;font-size:27px;font-family:MScore;fill:#000000;fill-opacity:1;stroke:none">
      <path
         vector-effect="none"
         d="m 5.80078,-3.03223 c -0.63281,0 -1.08984,0.21973 -1.37109,0.65918 -0.31641,0.42188 -0.47461,0.99317 -0.47461,1.71387 0,0.826172 0.21972,1.538086 0.65918,2.13574 0.43945,0.58008 0.92285,0.98438 1.45019,1.21289 0.47461,0.22852 0.97559,0.34278 1.50293,0.34278 0.61524,0 1.08106,-0.21973 1.39746,-0.65918 C 9.26367,1.93359 9.41309,1.3623 9.41309,0.65918 9.41309,-0.166992 9.19336,-0.878906 8.75391,-1.47656 8.31445,-2.03906 7.83984,-2.44336 7.33008,-2.68945 6.82031,-2.91797 6.31055,-3.03223 5.80078,-3.03223 m 0.89649,-0.68554 c 1.89843,0 3.48043,0.36914 4.74613,1.10742 1.2832,0.73828 1.9248,1.6084 1.9248,2.61035 0,1.07227 -0.6592,1.95117 -1.9776,2.63672 -1.3183,0.7207 -2.88279,1.08105 -4.69333,1.08105 -1.86329,0 -3.44532,-0.36914 -4.7461,-1.10742 C 0.650391,1.87207 0,1.00195 0,0 0,-1.07227 0.667969,-1.95117 2.00391,-2.63672 3.32227,-3.35742 4.88672,-3.71777 6.69727,-3.71777"
         id="path126"
         inkscape:connector-curvature="0"
         style="fill-rule:nonzero" />
    </g>
    <g
       transform="matrix(3.1252,0,0,3.1252,182.415,336.874)"
       font-size="27"
       font-weight="400"
       font-style="normal"
       id="g128"
       style="font-style:normal;font-weight:400;font-size:27px;font-family:MScore;fill:none;stroke:#000000;stroke-width:1;stroke-linecap:square;stroke-linejoin:bevel;stroke-opacity:1" />
    <g
       transform="matrix(3.1252,0,0,3.1252,182.415,357.709)"
       font-size="27"
       font-weight="400"
       font-style="normal"
       id="g130"
       style="font-style:normal;font-weight:400;font-size:27px;font-family:MScore;fill:none;stroke:#000000;stroke-width:1;stroke-linecap:square;stroke-linejoin:bevel;stroke-opacity:1" />
    <g
       transform="matrix(3.1252,0,0,3.1252,182.415,357.709)"
       font-size="27"
       font-weight="400"
       font-style="normal"
       id="g132"
       style="font-style:normal;font-weight:400;font-size:27px;font-family:MScore;fill:#000000;fill-opacity:1;stroke:none">
      <path
         vector-effect="none"
         d="m 5.80078,-3.03223 c -0.63281,0 -1.08984,0.21973 -1.37109,0.65918 -0.31641,0.42188 -0.47461,0.99317 -0.47461,1.71387 0,0.826172 0.21972,1.538086 0.65918,2.13574 0.43945,0.58008 0.92285,0.98438 1.45019,1.21289 0.47461,0.22852 0.97559,0.34278 1.50293,0.34278 0.61524,0 1.08106,-0.21973 1.39746,-0.65918 C 9.26367,1.93359 9.41309,1.3623 9.41309,0.65918 9.41309,-0.166992 9.19336,-0.878906 8.75391,-1.47656 8.31445,-2.03906 7.83984,-2.44336 7.33008,-2.68945 6.82031,-2.91797 6.31055,-3.03223 5.80078,-3.03223 m 0.89649,-0.68554 c 1.89843,0 3.48043,0.36914 4.74613,1.10742 1.2832,0.73828 1.9248,1.6084 1.9248,2.61035 0,1.07227 -0.6592,1.95117 -1.9776,2.63672 -1.3183,0.7207 -2.88279,1.08105 -4.69333,1.08105 -1.86329,0 -3.44532,-0.36914 -4.7461,-1.10742 C 0.650391,1.87207 0,1.00195 0,0 0,-1.07227 0.667969,-1.95117 2.00391,-2.63672 3.32227,-3.35742 4.88672,-3.71777 6.69727,-3.71777"
         id="path134"
         inkscape:connector-curvature="0"
         style="fill-rule:nonzero" />
    </g>
    <g
       transform="matrix(3.1252,0,0,3.1252,182.415,357.709)"
       font-size="27"
       font-weight="400"
       font-style="normal"
       id="g136"
       style="font-style:normal;font-weight:400;font-size:27px;font-family:MScore;fill:none;stroke:#000000;stroke-width:1;stroke-linecap:square;stroke-linejoin:bevel;stroke-opacity:1" />
    <g
       transform="matrix(3.1252,0,0,3.1252,39.1089,560.846)"
       font-size="27"
       font-weight="400"
       font-style="normal"
       id="g138"
       style="font-style:normal;font-weight:400;font-size:27px;font-family:MScore;fill:none;stroke:#000000;stroke-width:1;stroke-linecap:square;stroke-linejoin:bevel;stroke-opacity:1" />
    <g
       transform="matrix(3.1252,0,0,3.1252,39.1089,560.846)"
       font-size="27"
       font-weight="400"
       font-style="normal"
       id="g140"
       style="font-style:normal;font-weight:400;font-size:27px;font-family:MScore;fill:#000000;fill-opacity:1;stroke:none">
      <path
         vector-effect="none"
         d="m 13.2891,17.7188 c 0,2.707 -1.6612,4.0605 -4.98344,4.0605 l -5.93261,0 0,-13.44727 5.93261,0 c 3.04104,0 4.56154,1.23047 4.56154,3.69137 0,1.4063 -0.6416,2.2764 -1.9248,2.6104 1.5644,0.2988 2.3467,1.3271 2.3467,3.085 m -8.12113,-7.0928 0,3.0586 3.13769,0 c 1.21289,0 1.81934,-0.5537 1.81934,-1.6612 0,-0.9316 -0.60645,-1.3974 -1.81934,-1.3974 l -3.13769,0 m 0,5.3525 0,3.5069 3.13769,0 c 1.45899,0 2.18844,-0.5889 2.18844,-1.7666 0,-1.1602 -0.72945,-1.7403 -2.18844,-1.7403 l -3.13769,0 m 4.37695,-12.18162 -4.95703,0 -0.92285,2.71582 -2.874024,0 4.640624,-13.44727 3.26953,0 4.64063,13.44727 -2.874,0 -0.92288,-2.71582 m -0.68554,-2.32032 -1.79297,-5.2207 -1.79297,5.2207 3.58594,0 m -0.39551,-21.14646 0,11.10056 -2.79492,0 0,-11.10056 -4.08692,0 0,-2.3467 10.96877,0 0,2.3467 -4.08693,0"
         id="path142"
         inkscape:connector-curvature="0"
         style="fill-rule:nonzero" />
    </g>
    <g
       transform="matrix(3.1252,0,0,3.1252,39.1089,560.846)"
       font-size="27"
       font-weight="400"
       font-style="normal"
       id="g144"
       style="font-style:normal;font-weight:400;font-size:27px;font-family:MScore;fill:none;stroke:#000000;stroke-width:1;stroke-linecap:square;stroke-linejoin:bevel;stroke-opacity:1" />
    <g
       transform="matrix(3.1252,0,0,3.1252,39.1089,326.457)"
       font-size="27"
       font-weight="400"
       font-style="normal"
       id="g146"
       style="font-style:normal;font-weight:400;font-size:27px;font-family:MScore;fill:none;stroke:#000000;stroke-width:1;stroke-linecap:square;stroke-linejoin:bevel;stroke-opacity:1" />
    <g
       transform="matrix(3.1252,0,0,3.1252,39.1089,326.457)"
       font-size="27"
       font-weight="400"
       font-style="normal"
       id="g148"
       style="font-style:normal;font-weight:400;font-size:27px;font-family:MScore;fill:#000000;fill-opacity:1;stroke:none">
      <path
         vector-effect="none"
         d="m 9.91406,-6.9082 c 0,0 0.05274,0 0.15824,0 0.0703,-0.01758 0.1318,-0.02637 0.1845,-0.02637 1.9688,0 3.586,0.69434 4.8516,2.08301 1.2656,1.37109 1.8984,2.9707 1.8984,4.7988256 0,2.2675744 -0.9404,4.1132844 -2.8213,5.5371144 -0.4921,0.38671 -1.1337,0.70312 -1.9248,0.94921 0.0879,1.14258 0.1319,2.06543 0.1319,2.76856 0,0.14062 -0.0176,0.65039 -0.0528,1.52925 -0.0703,1.6348 -0.6328,3.0498 -1.6875,4.2452 -1.01949,1.1777 -2.28511,1.7666 -3.79683,1.7666 -1.42383,0 -2.63672,-0.501 -3.63867,-1.503 -1.00196,-1.0195 -1.50293,-2.25 -1.50293,-3.6914 0,-0.7558 0.29004,-1.3974 0.87011,-1.92478 0.59766,-0.52734 1.292,-0.79101 2.08301,-0.79101 0.70313,0 1.29199,0.27246 1.7666,0.81738 0.49219,0.50981 0.73829,1.14261 0.73829,1.89841 0,0.6856 -0.2461,1.2744 -0.73829,1.7666 -0.49218,0.4922 -1.08105,0.7383 -1.7666,0.7383 -0.28125,0 -0.55371,-0.0527 -0.81738,-0.1582 0.77344,1.1426 1.80176,1.7139 3.08496,1.7139 1.21289,0 2.20605,-0.4922 2.97949,-1.4766 0.80864,-1.0195 1.24804,-2.206 1.31834,-3.5596 0.0352,-0.84371 0.0528,-1.32711 0.0528,-1.45015 0,-0.98438 -0.0352,-1.79297 -0.1055,-2.42578 C 10.3008,6.83789 9.51855,6.9082 8.83301,6.9082 6.38965,6.9082 4.30664,5.94141 2.58398,4.00781 0.896484,2.05664 0.0527344,-0.263672 0.0527344,-2.95312 c 0,-0.5625 0.0527346,-1.13379 0.1582036,-1.71387 0.105468,-0.47461 0.237304,-0.99317 0.395507,-1.55567 0.087891,-0.3164 0.325196,-0.82617 0.711915,-1.52929 0.14062,-0.21094 0.29883,-0.47461 0.47461,-0.79102 0.17578,-0.31641 0.29883,-0.52734 0.36914,-0.63281 0.17578,-0.35156 0.51855,-0.82622 1.02832,-1.42382 0.14062,-0.1582 0.28564,-0.334 0.43506,-0.5274 0.14941,-0.1933 0.27685,-0.3515 0.38232,-0.4746 0.10547,-0.123 0.18457,-0.2197 0.23731,-0.29 0.05273,-0.0703 0.44824,-0.5361 1.18652,-1.3975 0.17578,-0.1757 0.34717,-0.3647 0.51416,-0.5669 0.16699,-0.2021 0.30322,-0.3603 0.40869,-0.4746 0.10547,-0.1142 0.18457,-0.1977 0.23731,-0.2505 -0.63282,-2.0918 -1.02832,-3.7617 -1.18653,-5.0097 -0.12304,-1.002 -0.18457,-2.3731 -0.18457,-4.1133 0,-1.5293 0.35157,-2.9619 1.05469,-4.2979 0.68555,-1.3886 1.64356,-2.5224 2.87402,-3.4013 0.08789,-0.0528 0.17579,-0.0791 0.26368,-0.0791 0.12304,0 0.21093,0.0263 0.26367,0.0791 0.94924,1.1426 1.76664,2.6279 2.45214,4.456 0.7031,1.8282 1.0547,3.4893 1.0547,4.9834 0,1.6875 -0.4043,3.2696 -1.2129,4.7461 -0.9141,1.5645 -2.09179,3.1817 -3.5332,4.8516 0.36914,1.1601 0.86133,2.97948 1.47656,5.458 M 12.1553,5.35254 c 0.914,-0.33399 1.6259,-0.90527 2.1357,-1.71387 0.5625,-0.77344 0.8438,-1.64355 0.8438,-2.61035 0,-1.248047 -0.4219,-2.35547 -1.2657,-3.32227 -0.8613,-1.00195 -1.9599,-1.56445 -3.2959,-1.6875 0.7559,3.708989 1.2832,6.82032 1.5821,9.33399 M 1.95117,-0.738281 c 0,1.740231 0.70313,3.269531 2.10938,4.587891 1.4414,1.2832 3.05859,1.9248 4.85156,1.9248 0.73828,0 1.45899,-0.05273 2.16209,-0.1582 -0.2812,-2.67187 -0.8349,-5.871093 -1.66111,-9.59766 -1.00196,0.10547 -1.80176,0.45704 -2.39942,1.05469 -0.58008,0.61524 -0.87012,1.30957 -0.87012,2.08301 0,1.335938 0.71192,2.41699 2.13575,3.24316 0.12304,0.12305 0.18457,0.25489 0.18457,0.39551 0,0.14063 -0.06153,0.27246 -0.18457,0.39551 C 8.17383,3.31348 8.04199,3.375 7.88379,3.375 7.86621,3.375 7.78711,3.35742 7.64648,3.32227 6.64453,2.77734 5.87109,2.07422 5.32617,1.21289 4.81641,0.298828 4.56152,-0.624023 4.56152,-1.55566 c 0,-1.21289 0.37793,-2.31153 1.13379,-3.2959 C 6.48633,-5.83594 7.51465,-6.46875 8.78027,-6.75 8.28809,-8.71875 7.88379,-10.2568 7.56738,-11.3643 7.28613,-11.0479 6.94775,-10.6655 6.55225,-10.2173 6.15674,-9.76904 5.92383,-9.50098 5.85352,-9.41309 5.2207,-8.58691 4.7373,-7.94531 4.40332,-7.48828 3.80566,-6.66211 3.36621,-5.9502 3.08496,-5.35254 2.78613,-4.68457 2.52246,-3.95508 2.29395,-3.16406 2.06543,-2.4082 1.95117,-1.59961 1.95117,-0.738281 M 10.7578,-27.5537 c -1.31835,0.6504 -2.35546,1.582 -3.11132,2.7949 -0.77343,1.2481 -1.16015,2.5928 -1.16015,4.0342 0,1.2656 0.3164,2.9707 0.94922,5.1152 1.26562,-1.5293 2.21484,-2.9443 2.84765,-4.2451 0.668,-1.3711 1.002,-2.8037 1.002,-4.2978 0,-1.125 -0.1758,-2.2588 -0.5274,-3.4014 M 7.85742,20.5664 C 8.31445,20.1094 8.54297,19.6523 8.54297,19.1953 8.50781,18.8262 8.34961,18.5449 8.06836,18.3516 7.75195,18.1406 7.38281,18.0352 6.96094,18.0352 c -0.29883,0 -0.54492,0.0966 -0.73828,0.29 -0.17578,0.1758 -0.26368,0.3955 -0.26368,0.6592 0,0.3164 0.13184,0.5537 0.39551,0.7119 l 1.50293,0.8701 m 0.42188,0.2373 c 0.73828,0.4043 1.10742,0.9492 1.10742,1.6348 l 0,0.0791 c 0,0.5449 -0.21973,1.0019 -0.65918,1.3711 -0.43945,0.3867 -1.06348,0.5801 -1.87207,0.5801 -0.66797,0 -1.24805,-0.1758 -1.74024,-0.5274 -0.49218,-0.334 -0.73828,-0.791 -0.73828,-1.3711 0,-0.2285 0.06153,-0.4394 0.18457,-0.6328 0.14063,-0.2285 0.25489,-0.3867 0.34278,-0.4746 l 0.50097,-0.501 C 4.86035,20.5928 4.58789,20.1094 4.58789,19.5117 c 0,-0.4746 0.21094,-0.8965 0.63281,-1.2656 0.43946,-0.3516 1.01953,-0.5273 1.74024,-0.5273 0.59765,0 1.10742,0.1318 1.52929,0.3955 0.42188,0.2636 0.63282,0.624 0.63282,1.081 0,0.4746 -0.28125,1.0108 -0.84375,1.6084 m -2.47852,0.3955 c -0.52734,0.457 -0.80859,0.9141 -0.84375,1.3711 0.03516,0.4746 0.22852,0.8526 0.58008,1.1338 0.38672,0.2988 0.82617,0.4482 1.31836,0.4482 0.35156,0 0.63281,-0.1142 0.84375,-0.3427 0.21094,-0.211 0.3164,-0.4658 0.3164,-0.7647 C 7.99805,22.6582 7.83984,22.377 7.54102,22.2012 l -1.74024,-1.002"
         id="path150"
         inkscape:connector-curvature="0"
         style="fill-rule:nonzero" />
    </g>
    <g
       transform="matrix(3.1252,0,0,3.1252,39.1089,326.457)"
       font-size="27"
       font-weight="400"
       font-style="normal"
       id="g152"
       style="font-style:normal;font-weight:400;font-size:27px;font-family:MScore;fill:none;stroke:#000000;stroke-width:1;stroke-linecap:square;stroke-linejoin:bevel;stroke-opacity:1" />
    <g
       transform="matrix(3.1252,0,0,3.1252,112.515,263.953)"
       font-size="27"
       font-weight="400"
       font-style="normal"
       id="g154"
       style="font-style:normal;font-weight:400;font-size:27px;font-family:MScore;fill:none;stroke:#000000;stroke-width:1;stroke-linecap:square;stroke-linejoin:bevel;stroke-opacity:1" />
    <g
       transform="matrix(3.1252,0,0,3.1252,112.515,284.787)"
       font-size="27"
       font-weight="400"
       font-style="normal"
       id="g156"
       style="font-style:normal;font-weight:400;font-size:27px;font-family:MScore;fill:#000000;fill-opacity:1;stroke:none">
      <path
         vector-effect="none"
         d="m 6.06445,-6.40723 c 0.52735,0 0.97559,-0.06152 1.34473,-0.18457 0.36914,-0.12304 0.60644,-0.18457 0.71191,-0.18457 0.12305,0 0.21973,0.03516 0.29004,0.10547 0.05274,0.05274 0.08789,0.11426 0.10547,0.18457 0,0.03516 -0.01758,0.08789 -0.05273,0.15821 l -7.672854,8.9121 4.508784,0 0,-3.533199 c 0,-0.228511 0.06153,-0.421871 0.18458,-0.580081 0.21093,-0.17578 0.38671,-0.28125 0.52734,-0.3164 0.22851,-0.10547 0.50976,-0.35157 0.84375,-0.73828 0.28125,-0.31641 0.61523,-0.87012 1.00195,-1.66114 0.05274,-0.10547 0.13184,-0.1582 0.23731,-0.1582 0.21093,0 0.33398,0.12305 0.36914,0.36914 l 0,6.61816 1.92483,0 c 0.2461,0 0.3867,0.13184 0.4218,0.39551 0,0.26367 -0.1406,0.39551 -0.4218,0.39551 l -1.92483,0 0,0.21094 c 0,0.70312 0.17578,1.30078 0.52734,1.79297 0.4043,0.49218 0.87891,0.73828 1.42379,0.73828 0.211,0 0.3164,0.10547 0.3164,0.3164 C 10.7314,6.64453 10.626,6.75 10.415,6.75 10.0459,6.75 9.44824,6.69727 8.62207,6.5918 7.86621,6.46875 7.27734,6.40723 6.85547,6.40723 6.41602,6.40723 5.82715,6.46875 5.08887,6.5918 4.29785,6.69727 3.70898,6.75 3.32227,6.75 3.11133,6.75 3.00586,6.64453 3.00586,6.43359 c 0,-0.21093 0.10547,-0.3164 0.31641,-0.3164 0.54492,0 1.01953,-0.2461 1.42382,-0.73828 C 5.11523,4.88672 5.2998,4.28906 5.2998,3.58594 l 0,-0.21094 -4.508784,0 C 0.492188,3.375 0.28125,3.30469 0.158203,3.16406 0.0175781,3.05859 -0.0527344,2.91797 -0.0527344,2.74219 c 0,-0.05274 0.131836,-0.23731 0.3955074,-0.55371 C 0.641602,1.83691 0.958008,1.40625 1.29199,0.896484 1.67871,0.298828 2.04785,-0.316406 2.39941,-0.949219 2.78613,-1.66992 3.09375,-2.49609 3.32227,-3.42773 c 0.26367,-0.94922 0.3955,-1.91602 0.3955,-2.90039 0,-0.28126 0.12305,-0.42188 0.36914,-0.42188 0.05274,0 0.167,0.02637 0.34278,0.0791 0.05273,0.01758 0.1626,0.04395 0.32959,0.0791 0.16699,0.03516 0.30322,0.07032 0.40869,0.10547 0.31641,0.05274 0.61523,0.0791 0.89648,0.0791"
         id="path158"
         inkscape:connector-curvature="0"
         style="fill-rule:nonzero" />
    </g>
    <g
       transform="matrix(3.1252,0,0,3.1252,112.515,263.953)"
       font-size="27"
       font-weight="400"
       font-style="normal"
       id="g160"
       style="font-style:normal;font-weight:400;font-size:27px;font-family:MScore;fill:none;stroke:#000000;stroke-width:1;stroke-linecap:square;stroke-linejoin:bevel;stroke-opacity:1" />
    <g
       transform="matrix(3.1252,0,0,3.1252,112.515,263.953)"
       font-size="27"
       font-weight="400"
       font-style="normal"
       id="g162"
       style="font-style:normal;font-weight:400;font-size:27px;font-family:MScore;fill:none;stroke:#000000;stroke-width:1;stroke-linecap:square;stroke-linejoin:bevel;stroke-opacity:1" />
    <g
       transform="matrix(3.1252,0,0,3.1252,112.515,326.457)"
       font-size="27"
       font-weight="400"
       font-style="normal"
       id="g164"
       style="font-style:normal;font-weight:400;font-size:27px;font-family:MScore;fill:#000000;fill-opacity:1;stroke:none">
      <path
         vector-effect="none"
         d="m 6.06445,-6.40723 c 0.52735,0 0.97559,-0.06152 1.34473,-0.18457 0.36914,-0.12304 0.60644,-0.18457 0.71191,-0.18457 0.12305,0 0.21973,0.03516 0.29004,0.10547 0.05274,0.05274 0.08789,0.11426 0.10547,0.18457 0,0.03516 -0.01758,0.08789 -0.05273,0.15821 l -7.672854,8.9121 4.508784,0 0,-3.533199 c 0,-0.228511 0.06153,-0.421871 0.18458,-0.580081 0.21093,-0.17578 0.38671,-0.28125 0.52734,-0.3164 0.22851,-0.10547 0.50976,-0.35157 0.84375,-0.73828 0.28125,-0.31641 0.61523,-0.87012 1.00195,-1.66114 0.05274,-0.10547 0.13184,-0.1582 0.23731,-0.1582 0.21093,0 0.33398,0.12305 0.36914,0.36914 l 0,6.61816 1.92483,0 c 0.2461,0 0.3867,0.13184 0.4218,0.39551 0,0.26367 -0.1406,0.39551 -0.4218,0.39551 l -1.92483,0 0,0.21094 c 0,0.70312 0.17578,1.30078 0.52734,1.79297 0.4043,0.49218 0.87891,0.73828 1.42379,0.73828 0.211,0 0.3164,0.10547 0.3164,0.3164 C 10.7314,6.64453 10.626,6.75 10.415,6.75 10.0459,6.75 9.44824,6.69727 8.62207,6.5918 7.86621,6.46875 7.27734,6.40723 6.85547,6.40723 6.41602,6.40723 5.82715,6.46875 5.08887,6.5918 4.29785,6.69727 3.70898,6.75 3.32227,6.75 3.11133,6.75 3.00586,6.64453 3.00586,6.43359 c 0,-0.21093 0.10547,-0.3164 0.31641,-0.3164 0.54492,0 1.01953,-0.2461 1.42382,-0.73828 C 5.11523,4.88672 5.2998,4.28906 5.2998,3.58594 l 0,-0.21094 -4.508784,0 C 0.492188,3.375 0.28125,3.30469 0.158203,3.16406 0.0175781,3.05859 -0.0527344,2.91797 -0.0527344,2.74219 c 0,-0.05274 0.131836,-0.23731 0.3955074,-0.55371 C 0.641602,1.83691 0.958008,1.40625 1.29199,0.896484 1.67871,0.298828 2.04785,-0.316406 2.39941,-0.949219 2.78613,-1.66992 3.09375,-2.49609 3.32227,-3.42773 c 0.26367,-0.94922 0.3955,-1.91602 0.3955,-2.90039 0,-0.28126 0.12305,-0.42188 0.36914,-0.42188 0.05274,0 0.167,0.02637 0.34278,0.0791 0.05273,0.01758 0.1626,0.04395 0.32959,0.0791 0.16699,0.03516 0.30322,0.07032 0.40869,0.10547 0.31641,0.05274 0.61523,0.0791 0.89648,0.0791"
         id="path166"
         inkscape:connector-curvature="0"
         style="fill-rule:nonzero" />
    </g>
    <g
       transform="matrix(3.1252,0,0,3.1252,112.515,263.953)"
       font-size="27"
       font-weight="400"
       font-style="normal"
       id="g168"
       style="font-style:normal;font-weight:400;font-size:27px;font-family:MScore;fill:none;stroke:#000000;stroke-width:1;stroke-linecap:square;stroke-linejoin:bevel;stroke-opacity:1" />
    <g
       transform="matrix(3.125,0,0,3.125,158.078,102.902)"
       font-size="16"
       font-weight="400"
       font-style="normal"
       id="g170"
       style="font-style:normal;font-weight:400;font-size:16px;font-family:FreeSerif;fill:none;stroke:#000000;stroke-width:1;stroke-linecap:square;stroke-linejoin:bevel;stroke-opacity:1" />
    <g
       transform="matrix(3.125,0,0,3.125,158.078,102.902)"
       font-size="16"
       font-weight="400"
       font-style="normal"
       id="g172"
       style="font-style:normal;font-weight:400;font-size:16px;font-family:FreeSerif;fill:#000000;fill-opacity:1;stroke:none">
      <path
         vector-effect="none"
         d="m 10.96,-5.34375 c 0,0.48 -0.0534,0.94933 -0.1603,1.408 -0.1068,0.45867 -0.3044,0.93329 -0.593,1.42388 C 9.91825,-2.02129 9.54963,-1.59733 9.10088,-1.24 8.65212,-0.882667 8.05642,-0.586667 7.31375,-0.352 6.57108,-0.117333 5.72967,0 4.7895,0 L 0.24,0 l 0,-0.304 C 0.848,-0.349 1.23467,-0.45675 1.4,-0.62725 1.56533,-0.79775 1.648,-1.17083 1.648,-1.7465 l 0,-7.098 C 1.648,-9.43083 1.57067,-9.80392 1.416,-9.96375 1.26133,-10.1236 0.869333,-10.2317 0.24,-10.288 l 0,-0.304 4.325,0 c 0.97233,0 1.8405,0.1093 2.6045,0.328 0.764,0.2187 1.37837,0.50133 1.84312,0.848 0.46476,0.34667 0.84942,0.75737 1.15398,1.23212 0.3046,0.47475 0.513,0.94146 0.6252,1.40013 0.1121,0.45867 0.1682,0.93867 0.1682,1.44 M 9.2,-5.23225 C 9.2,-5.68942 9.15467,-6.12792 9.064,-6.54775 8.97333,-6.96758 8.81067,-7.39279 8.576,-7.82338 8.34133,-8.25396 8.03733,-8.62338 7.664,-8.93163 7.29067,-9.23987 6.8,-9.49233 6.192,-9.689 5.584,-9.88567 4.89067,-9.984 4.112,-9.984 3.78133,-9.984 3.56,-9.94146 3.448,-9.85637 3.336,-9.77129 3.28,-9.6065 3.28,-9.362 l 0,8.10025 c 0,0.25517 0.05867,0.427917 0.176,0.51825 0.11733,0.090333 0.336,0.1355 0.656,0.1355 3.392,0 5.088,-1.54142 5.088,-4.62425"
         id="path174"
         inkscape:connector-curvature="0"
         style="fill-rule:nonzero" />
    </g>
    <g
       transform="matrix(3.125,0,0,3.125,158.078,102.902)"
       font-size="16"
       font-weight="400"
       font-style="normal"
       id="g176"
       style="font-style:normal;font-weight:400;font-size:16px;font-family:FreeSerif;fill:none;stroke:#000000;stroke-width:1;stroke-linecap:square;stroke-linejoin:bevel;stroke-opacity:1" />
    <g
       transform="matrix(3.125,0,0,3.125,158.078,102.902)"
       font-size="16"
       font-weight="400"
       font-style="normal"
       id="g178"
       style="font-style:normal;font-weight:400;font-size:16px;font-family:FreeSerif;fill:none;stroke:#000000;stroke-width:1;stroke-linecap:square;stroke-linejoin:bevel;stroke-opacity:1" />
    <g
       transform="matrix(3.125,0,0,3.125,197.629,102.902)"
       font-size="16"
       font-weight="400"
       font-style="normal"
       id="g180"
       style="font-style:normal;font-weight:400;font-size:16px;font-family:FreeSerif;fill:#000000;fill-opacity:1;stroke:none">
      <path
         vector-effect="none"
         d="m 0.208,-6.336 0,-0.272 c 0.768667,-0.22283 1.52,-0.4735 2.254,-0.752 l 0.11325,0.03275 7.5e-4,1.23 C 3.23383,-6.61108 3.72187,-6.95 4.04012,-7.114 4.35837,-7.278 4.69258,-7.36 5.04275,-7.36 5.89108,-7.36 6.46017,-6.90192 6.75,-5.98575 7.57833,-6.90192 8.44392,-7.36 9.34675,-7.36 c 1.24615,0 1.86925,0.95675 1.86925,2.87025 l 0,3.27875 c 0,0.594333 0.226,0.907417 0.678,0.93925 l 0.41,0.03175 0,0.24 -3.488,0 0,-0.24 C 9.27817,-0.293 9.56704,-0.383208 9.68262,-0.510625 9.79821,-0.638042 9.856,-0.929917 9.856,-1.38625 l 0,-3.35875 c 0,-0.658 -0.08488,-1.11433 -0.25462,-1.369 -0.16975,-0.25467 -0.48271,-0.382 -0.93888,-0.382 -0.70017,0 -1.27833,0.32392 -1.7345,0.97175 l 0,4.011 c 0,0.49867 0.07625,0.832875 0.22875,1.002625 0.1525,0.16975 0.45492,0.259958 0.90725,0.270625 l 0,0.24 -3.568,0 0,-0.24 c 0.452,-0.031833 0.74367,-0.11675 0.875,-0.25475 0.13133,-0.138 0.197,-0.429833 0.197,-0.8755 l 0,-3.45425 c 0,-1.11433 -0.35008,-1.6715 -1.05025,-1.6715 -0.297,0 -0.6285,0.07433 -0.9945,0.223 -0.366,0.14867 -0.66042,0.38767 -0.88325,0.717 l 0,4.48825 c 0,0.307833 0.07358,0.517458 0.22075,0.628875 C 3.00792,-0.327458 3.29167,-0.261167 3.712,-0.24 l 0,0.24 -3.536,0 0,-0.24 C 0.617667,-0.250667 0.912083,-0.33025 1.05925,-0.47875 1.20642,-0.62725 1.28,-0.919083 1.28,-1.35425 l 0,-4.027 c 0,-0.382 -0.04,-0.64729 -0.12,-0.79588 C 1.08,-6.32571 0.933333,-6.4 0.72,-6.4 c -0.16,0 -0.330667,0.02133 -0.512,0.064"
         id="path182"
         inkscape:connector-curvature="0"
         style="fill-rule:nonzero" />
    </g>
    <g
       transform="matrix(3.125,0,0,3.125,158.078,102.902)"
       font-size="16"
       font-weight="400"
       font-style="normal"
       id="g184"
       style="font-style:normal;font-weight:400;font-size:16px;font-family:FreeSerif;fill:none;stroke:#000000;stroke-width:1;stroke-linecap:square;stroke-linejoin:bevel;stroke-opacity:1" />
    <g
       transform="matrix(3.125,0,0,3.125,158.078,102.902)"
       font-size="16"
       font-weight="400"
       font-style="normal"
       id="g186"
       style="font-style:normal;font-weight:400;font-size:16px;font-family:FreeSerif;fill:none;stroke:#000000;stroke-width:1;stroke-linecap:square;stroke-linejoin:bevel;stroke-opacity:1" />
    <g
       transform="matrix(3.125,0,0,3.125,235.129,102.902)"
       font-size="16"
       font-weight="400"
       font-style="normal"
       id="g188"
       style="font-style:normal;font-weight:400;font-size:16px;font-family:FreeSerif;fill:#000000;fill-opacity:1;stroke:none">
      <path
         vector-effect="none"
         d="M 0.944,0.352 0.896,0.032 C 2.112,-0.182 3.144,-0.701 3.992,-1.525 4.84,-2.349 5.42933,-3.41383 5.76,-4.7195 4.97067,-4.10117 4.17067,-3.792 3.36,-3.792 2.496,-3.792 1.8,-4.0915 1.272,-4.6905 0.744,-5.2895 0.48,-6.07567 0.48,-7.049 c 0,-1.08383 0.317333,-1.98796 0.952,-2.71238 0.63467,-0.72442 1.42667,-1.08662 2.376,-1.08662 1.058,0 1.92517,0.4233 2.6015,1.26988 0.67633,0.84658 1.0145,1.93429 1.0145,3.26312 0,0.42733 -0.03779,0.86537 -0.11338,1.31413 C 7.23504,-4.55213 7.05954,-4.02058 6.78413,-3.40625 6.50871,-2.79192 6.14958,-2.24167 5.70675,-1.7555 5.26392,-1.26933 4.63213,-0.828583 3.81137,-0.43325 2.99063,-0.0379167 2.03483,0.223833 0.944,0.352 m 2.992,-4.848 c 0.20267,0 0.432,-0.02925 0.688,-0.08775 0.256,-0.0585 0.51467,-0.18617 0.776,-0.383 0.26133,-0.19683 0.392,-0.43883 0.392,-0.726 l 0,-0.62225 c 0,-2.702 -0.704,-4.053 -2.112,-4.053 -0.33067,0 -0.61333,0.0877 -0.848,0.2632 -0.23467,0.17555 -0.41333,0.40693 -0.536,0.69418 -0.12267,0.28724 -0.21067,0.57979 -0.264,0.87762 -0.05333,0.29783 -0.08,0.61167 -0.08,0.9415 0,0.94667 0.17867,1.69925 0.536,2.25775 0.35733,0.5585 0.84,0.83775 1.448,0.83775"
         id="path190"
         inkscape:connector-curvature="0"
         style="fill-rule:nonzero" />
    </g>
    <g
       transform="matrix(3.125,0,0,3.125,158.078,102.902)"
       font-size="16"
       font-weight="400"
       font-style="normal"
       id="g192"
       style="font-style:normal;font-weight:400;font-size:16px;font-family:FreeSerif;fill:none;stroke:#000000;stroke-width:1;stroke-linecap:square;stroke-linejoin:bevel;stroke-opacity:1" />
    <g
       transform="matrix(3.125,0,0,3.125,168.495,127.904)"
       font-size="16"
       font-weight="400"
       font-style="normal"
       id="g194"
       style="font-style:normal;font-weight:400;font-size:16px;font-family:FreeSerif;fill:#000000;fill-opacity:1;stroke:#000000;stroke-width:0.53336698;stroke-linecap:butt;stroke-linejoin:bevel;stroke-opacity:1">
      <polyline
         vector-effect="none"
         points="-0.266683,0 23.6015,0 "
         id="polyline196"
         style="fill:none" />
      <polyline
         vector-effect="none"
         points="0,-1.33342 0,29.3352 "
         id="polyline198"
         style="fill:none" />
      <polyline
         vector-effect="none"
         points="4.66696,-1.33342 4.66696,29.3352 "
         id="polyline200"
         style="fill:none" />
      <polyline
         vector-effect="none"
         points="9.33392,-1.33342 9.33392,29.3352 "
         id="polyline202"
         style="fill:none" />
      <polyline
         vector-effect="none"
         points="14.0009,-1.33342 14.0009,29.3352 "
         id="polyline204"
         style="fill:none" />
      <polyline
         vector-effect="none"
         points="18.6678,-1.33342 18.6678,29.3352 "
         id="polyline206"
         style="fill:none" />
      <polyline
         vector-effect="none"
         points="23.3348,-1.33342 23.3348,29.3352 "
         id="polyline208"
         style="fill:none" />
      <polyline
         vector-effect="none"
         points="0,5.33367 23.3348,5.33367 "
         id="polyline210"
         style="fill:none" />
      <polyline
         vector-effect="none"
         points="0,10.6673 23.3348,10.6673 "
         id="polyline212"
         style="fill:none" />
      <polyline
         vector-effect="none"
         points="0,16.001 23.3348,16.001 "
         id="polyline214"
         style="fill:none" />
      <polyline
         vector-effect="none"
         points="0,21.3347 23.3348,21.3347 "
         id="polyline216"
         style="fill:none" />
      <polyline
         vector-effect="none"
         points="0,26.6683 23.3348,26.6683 "
         id="polyline218"
         style="fill:none" />
    </g>
    <g
       transform="matrix(3.125,0,0,3.125,168.495,127.904)"
       font-size="5"
       font-weight="400"
       font-style="normal"
       id="g220"
       style="font-style:normal;font-weight:400;font-size:5px;font-family:FreeSans;fill:#000000;fill-opacity:1;stroke:#000000;stroke-width:0.53336698;stroke-linecap:butt;stroke-linejoin:bevel;stroke-opacity:1" />
    <g
       transform="matrix(3.125,0,0,3.125,163.808,122.923)"
       font-size="5"
       font-weight="400"
       font-style="normal"
       id="g222"
       style="font-style:normal;font-weight:400;font-size:5px;font-family:FreeSans;fill:#000000;fill-opacity:1;stroke:none">
      <path
         vector-effect="none"
         d="M 1.92,-1.87 3.21,0 2.635,0 1.64,-1.52 0.64,0 0.075,0 l 1.29,-1.87 -1.21,-1.775 0.565,0 0.935,1.43 0.94,-1.43 0.555,0 -1.23,1.775"
         id="path224"
         inkscape:connector-curvature="0"
         style="fill-rule:nonzero" />
    </g>
    <g
       transform="matrix(3.125,0,0,3.125,168.495,127.904)"
       font-size="5"
       font-weight="400"
       font-style="normal"
       id="g226"
       style="font-style:normal;font-weight:400;font-size:5px;font-family:FreeSans;fill:#000000;fill-opacity:1;stroke:#000000;stroke-width:0.53336698;stroke-linecap:butt;stroke-linejoin:bevel;stroke-opacity:1">
      <path
         vector-effect="none"
         d="m 6.06705,13.3342 c 0,0.7732 -0.62684,1.4001 -1.40009,1.4001 -0.77325,0 -1.40009,-0.6269 -1.40009,-1.4001 0,-0.7733 0.62684,-1.4001 1.40009,-1.4001 0.77325,0 1.40009,0.6268 1.40009,1.4001"
         id="path228"
         inkscape:connector-curvature="0"
         style="fill-rule:evenodd" />
      <path
         vector-effect="none"
         d="m 10.734,2.66683 c 0,0.77325 -0.6268,1.40009 -1.40008,1.40009 -0.77325,0 -1.40009,-0.62684 -1.40009,-1.40009 0,-0.77324 0.62684,-1.40008 1.40009,-1.40008 0.77328,0 1.40008,0.62684 1.40008,1.40008"
         id="path230"
         inkscape:connector-curvature="0"
         style="fill-rule:evenodd" />
      <path
         vector-effect="none"
         d="m 15.401,13.3342 c 0,0.7732 -0.6269,1.4001 -1.4001,1.4001 -0.7733,0 -1.4001,-0.6269 -1.4001,-1.4001 0,-0.7733 0.6268,-1.4001 1.4001,-1.4001 0.7732,0 1.4001,0.6268 1.4001,1.4001"
         id="path232"
         inkscape:connector-curvature="0"
         style="fill-rule:evenodd" />
      <path
         vector-effect="none"
         d="m 20.0679,13.3342 c 0,0.7732 -0.6268,1.4001 -1.4001,1.4001 -0.7732,0 -1.4,-0.6269 -1.4,-1.4001 0,-0.7733 0.6268,-1.4001 1.4,-1.4001 0.7733,0 1.4001,0.6268 1.4001,1.4001"
         id="path234"
         inkscape:connector-curvature="0"
         style="fill-rule:evenodd" />
    </g>
    <g
       transform="matrix(3.125,0,0,3.125,236.708,122.923)"
       font-size="5"
       font-weight="400"
       font-style="normal"
       id="g236"
       style="font-style:normal;font-weight:400;font-size:5px;font-family:FreeSans;fill:#000000;fill-opacity:1;stroke:none">
      <path
         vector-effect="none"
         d="M 1.92,-1.87 3.21,0 2.635,0 1.64,-1.52 0.64,0 0.075,0 l 1.29,-1.87 -1.21,-1.775 0.565,0 0.935,1.43 0.94,-1.43 0.555,0 -1.23,1.775"
         id="path238"
         inkscape:connector-curvature="0"
         style="fill-rule:nonzero" />
    </g>
    <g
       transform="matrix(3.125,0,0,3.125,168.495,127.904)"
       font-size="5"
       font-weight="400"
       font-style="normal"
       id="g240"
       style="font-style:normal;font-weight:400;font-size:5px;font-family:FreeSans;fill:#000000;fill-opacity:1;stroke:#000000;stroke-width:0.53336698;stroke-linecap:butt;stroke-linejoin:bevel;stroke-opacity:1" />
    <g
       transform="matrix(3.125,0,0,3.125,168.495,127.904)"
       font-size="10"
       font-weight="400"
       font-style="normal"
       id="g242"
       style="font-style:normal;font-weight:400;font-size:10px;font-family:FreeSans;fill:#000000;fill-opacity:1;stroke:#000000;stroke-width:0.53336698;stroke-linecap:butt;stroke-linejoin:bevel;stroke-opacity:1" />
    <g
       transform="matrix(3.125,0,0,3.125,143.935,145.629)"
       font-size="10"
       font-weight="400"
       font-style="normal"
       id="g244"
       style="font-style:normal;font-weight:400;font-size:10px;font-family:FreeSans;fill:#000000;fill-opacity:1;stroke:none">
      <path
         vector-effect="none"
         d="m 2.74484,-6.27 c -0.50479,0 -0.85179,0.13378 -1.04101,0.40133 C 1.51461,-5.60112 1.41333,-5.2449 1.4,-4.8 l -0.93,0 c 0.033958,-1.52667 0.78891,-2.29 2.26484,-2.29 0.68115,0 1.21563,0.17234 1.60344,0.51703 0.38781,0.34469 0.58172,0.81865 0.58172,1.42188 0,0.70625 -0.3399,1.18687 -1.01969,1.44187 0.43719,0.14844 0.75143,0.35591 0.94274,0.62242 0.1913,0.26651 0.28695,0.6292 0.28695,1.08805 0,0.67906 -0.2206,1.220286 -0.6618,1.623672 C 4.02701,0.0283073 3.43927,0.23 2.705,0.23 1.22375,0.23 0.42875,-0.533333 0.32,-2.06 l 0.93,0 c 0.03333,0.49969 0.16958,0.86961 0.40875,1.109766 C 1.89792,-0.710078 2.25661,-0.59 2.73484,-0.59 3.19328,-0.59 3.55208,-0.713151 3.81125,-0.959453 4.07042,-1.20576 4.2,-1.54891 4.2,-1.98891 4.2,-2.8363 3.71161,-3.26 2.73484,-3.26 l -0.36859,0.01 -0.10953,0 0,-0.82 C 2.88766,-4.0826 3.33427,-4.15846 3.59656,-4.29758 3.85885,-4.43669 3.99,-4.71172 3.99,-5.12266 3.99,-5.47661 3.87875,-5.75633 3.65625,-5.9618 3.43375,-6.16727 3.12995,-6.27 2.74484,-6.27"
         id="path246"
         inkscape:connector-curvature="0"
         style="fill-rule:nonzero" />
    </g>
    <g
       transform="matrix(3.125,0,0,3.125,168.495,127.904)"
       font-size="10"
       font-weight="400"
       font-style="normal"
       id="g248"
       style="font-style:normal;font-weight:400;font-size:10px;font-family:FreeSans;fill:#000000;fill-opacity:1;stroke:#000000;stroke-width:0.53336698;stroke-linecap:butt;stroke-linejoin:bevel;stroke-opacity:1" />
  </g>
</svg>
